<?xml version="1.0" encoding="utf-8"?>
<!-- Generator: Adobe Illustrator 24.1.2, SVG Export Plug-In . SVG Version: 6.00 Build 0)  -->
<svg version="1.1" id="Calque_1" xmlns="http://www.w3.org/2000/svg" xmlns:xlink="http://www.w3.org/1999/xlink" x="0px" y="0px"
	 viewBox="0 0 2000 2000" style="enable-background:new 0 0 2000 2000;" xml:space="preserve">
<style type="text/css">
	.st0{fill:#FFFFFF;}
	.st1{fill:#FFE8A1;}
	.st2{fill:#D1E7F0;}
	.st3{fill:#FAB830;}
	.st4{display:none;}
	.st5{display:inline;fill:#8EB7D3;}
	.st6{display:inline;fill:#FFFFFF;}
	.st7{fill:#FFFEDB;}
	.st8{display:inline;fill:#D1A35A;}
	.st9{display:inline;fill:#C79627;}
	.st10{fill:#FFEFCE;}
</style>
<g id="Layer_2">
	<rect class="st0" width="2000" height="2000"/>
</g>
<g id="Layer_1">
	<g>
		<g>
			<path class="st1" d="M1631.1,836.8c-2.6-13.5-15.6-24.5-29.4-24.2c8.8-2.8,15-11.6,15.7-20.8s-3.6-18.4-10.4-24.6
				c-11.4-10.3-29.7-12-42.8-3.9s-19.7,25.3-15.4,40.1l-30.1,4.3c-7.9,6.1-15.4,13.2-20,22.2c-4.6,8.9-6.1,19.9-2,29
				c2.6,5.8,7.3,10.6,12.3,14.5c10.1,7.9,22.5,13.3,35.3,12.9c12.8-0.4,25.7-7.5,30.8-19.2c10.7,8.7,26.6,10.7,38.8,4.3
				C1626.3,865,1633.8,850.3,1631.1,836.8z"/>
			<path class="st1" d="M1455.6,1235.3c-8.6-3.1-17.8-4-26.9-4.9c-14.1-1.3-28.8-2.6-42.1,2.5c-18.8,7.2-31.5,27.8-29.5,47.8
				l-1,18.1c-15,7.5-22.4,26.4-18.9,42.8c3.5,16.4,16.4,29.9,31.8,36.7c18.2,8.1,39.9,7.4,57.6-1.6c9.4-4.8,17.8-12.2,22.6-21.7
				c4.7-9.5,5.4-21.3,0.3-30.7c10.3-1.3,19-8.8,24-17.9c4.9-9.1,6.5-19.7,7-30c0.4-8.4,0-17.1-3.9-24.5
				C1472.3,1243.9,1464.2,1238.3,1455.6,1235.3z"/>
			<path class="st1" d="M1337.2,1561.7c-4.4-4.1-11.2-5.9-16.7-3.6c-0.5-6.1-4.3-11.5-9.3-14.9c-5.1-3.3-11.2-4.7-17.3-4.8
				c-14.8-0.2-29.6,7.5-37.9,19.8l-3.4,17.1c-6.2,3.6-12.5,7.3-17.5,12.4c-5,5.2-8.6,12.1-8,19.3c0.6,8.4,6.6,15.4,13.5,20.3
				c10.7,7.5,23.8,11.1,36.8,11.3c13,0.2,26-2.7,38.2-7.1c8.2-3,16.5-6.9,21.7-14c4.5-6.2,6-14.1,7-21.7c0.8-6,1.5-12,0.7-18
				C1344,1571.7,1341.6,1565.7,1337.2,1561.7z"/>
			<path class="st1" d="M608.6,1217.2c-6.9,1.3-13.1,5.1-18.5,9.6c-9.2-12-24.5-18.9-39.5-18c-15,0.9-29.3,9.8-37,22.8
				c-7.6,13-8.3,29.8-1.7,43.4c-7.4,7.8-11.4,18.7-11,29.5s5.2,21.3,13.1,28.6c10.5,9.6,25.3,13.2,39.5,13.1
				c17.4-0.1,34.9-5.3,48.8-15.8s23.8-26.4,25.9-43.7l-9.7-17.6c6.2-6.5,12.2-13.6,14.9-22.1c2.7-8.5,1.5-18.9-5-24.9
				C623.1,1217.3,615.5,1215.9,608.6,1217.2z"/>
			<path class="st1" d="M478.2,745.3c-15.6-8.7-37-5.1-48.9,8.3c-3.3-8.5-12.7-13.9-21.8-13.7s-17.8,5.3-23.5,12.5
				c-5.6,7-8.8,16.1-8.2,25c0.6,9,5.2,17.7,12.5,22.9c-8.4,4.3-14.2,13.1-15.3,22.4c-1.1,9.3,2.2,19,8.3,26.2
				c4,4.6,9.2,8.3,15.1,9.6c10.9,2.5,22.4-3.3,29.8-11.7s11.4-19.2,15.4-29.7l21.3,7.8c13-2.5,24.8-11,31.1-22.6s6.9-26.2,1.5-38.3
				C491.9,756.3,485.8,749.5,478.2,745.3z"/>
			<path class="st1" d="M1263.3,618.5c13.1,7.3,27.8,15.4,42.2,16c0.3,0.4,0.6,0.8,0.9,1.2c8.8,13.4,13.8,28.9,19.6,43.9
				s12.9,30,24.8,40.8c11.9,10.8,29.7,16.4,44.4,10.1c18.5-7.9,25.6-30.8,24.9-50.8c-0.7-20.1-6.8-39.8-5.6-59.9
				c2.3-35.8,28-69.6,19.8-104.5c-4.2-17.9-17.1-32.8-32.3-43.2c-4.3-3-8.8-5.6-13.5-8c0.6-9.3,0.3-18.7-1.1-28
				c-4.2-28.1-20.4-55.8-46.4-67.3c8.8-20.5,3.8-46.1-12-61.9c-15.8-15.7-41.5-20.5-61.9-11.6c1.9-12.8-2.1-26.4-10.7-36.1
				c-13.6-15.4-35.5-19.7-55.7-23c-14.7-2.4-29.3-4.8-43.9-7.3c-1.2-0.2-2.4-0.4-3.6-0.6c-6.2-12.3-18.6-21.3-31.2-27.7
				c-22.6-11.6-48.4-18.4-73.5-14.2c-25,4.2-48.8,20.8-57,44.8c-24-15.2-54.2-20.5-82-14.3c-27.8,6.2-52.8,23.7-68.2,47.7
				c-20.7,0.7-40.9,7.4-58.3,18.5c-19.4-14.3-45.4-20.1-66.3-8.9c-25.6,13.8-34.2,45.7-39,74.4c-35,8.3-65.4,34.3-79.1,67.6
				c-14.6,0-29.4,0-43.5,3.6c-14.2,3.6-27.8,11.3-35.7,23.6c-7.9,12.3-8.7,29.6,0.5,41c10.3,12.8,28.8,14.6,45.2,15.4
				c-28.1,34.8-30,88.4-4.3,125c-14.7,18.4-14.2,47.3,1.3,65.1c15.5,17.8,44.1,22.3,64.3,10.3l21.6-38.1c11.5,4.8,24.9-0.5,34.5-8.6
				c9.5-8,16.6-18.6,25.9-26.9c19.8-17.7,47.1-23.3,73.1-29.9l1.1,7.5c27.6-12,55.4-24.1,84.8-30.8s60.8-7.5,89.1,2.7
				c10.3,3.7,20,8.8,30.5,11.7c22.7,6.1,55.2-3.3,78.5-19.7C1134.2,567.9,1203.1,585.2,1263.3,618.5z"/>
		</g>
		<g>
			<path class="st2" d="M1408.3,916.2c-10-12-24.6-19.3-39-25.4c-52.4-22.2-109.4-33.3-166.3-32.7c-1.7-3.7-4.1-7.1-7.3-10
				c-9.4-8.4-23.2-9.4-35.9-10.1c-19.5-1-39-1.9-58.5-2.9c1.4-0.8,2.7-1.6,3.8-2.8c6.4-6.4,6.2-16.6,5.4-25.6
				c-3.5-43.3-7-86.5-10.6-129.8c3.5-4.9,6.1-10.5,7.9-16.3c2.4-1.3,4.9-2.5,7.5-3.5c8.4-3.1,17.4-4.1,26.4-4.2
				c46.5-0.6,92.5,23,119.4,60.8c-1.2,35.8-2.3,71.6-3.4,107.4c-0.3,10-0.3,21,6.3,28.5c5.3,6.1,13.7,8.3,21.6,10.3
				c19.1,4.7,38.3,9.4,57.4,14.2c5.2,1.3,10.7,2.5,15.8,0.8c10.1-3.4,12.8-16.1,13.9-26.7c2.1-19.8,4.3-39.8,2.6-59.7
				c-1.6-19.9-7.3-39.9-19.3-55.8c-9.3-12.3-22.4-21.6-36.9-26.8c1.9-16.5,3.8-32.9,5.7-49.4c0.8-7.2,1.4-15.3-3.4-20.7
				c-2.3-2.6-5.6-4.2-8.8-5.6c-16.2-7.5-32.4-15-48.7-22.6c-15.9-7.4-31.8-14.8-48.3-20.6c-39.6-14.1-82.4-19.3-124.3-15.1
				c-14.6-4.9-29.7,5.5-44.1,11.2c-20.5,8.2-44.5,6.7-63.9-3.8l-39.8-18.2c-78.2,11.2-158.5,23.2-226.8,62.8
				c-18.3,10.6-35.4,23.1-51.4,37c-15.7,13.7-30.7,29.5-37.6,49.2c-3.8,10.8-5,22.9-1.1,33.7c0.6,1.8,1.5,3.5,2.4,5.2
				c2,41.8,4.1,83.6,6.1,125.4c16.3-1.8,32.7-3.6,49-5.4c-15,4.8-30.1,9.7-45.1,14.6c-12.7,4.1-25.6,8.3-36,16.7
				c-13.7,11-21.6,28.7-20.6,46.2c0.6,10.8,5.2,22.2,14.6,27.6c13.2,7.5,31.3,1.3,43.9,9.7c9.7,6.5,12.7,19.2,14.5,30.7
				c2.5,15.7,4.8,32.5,15.4,44.4c8,8.9,19.5,13.5,30.7,17.9c11.4,4.5,22.8,8.9,34.1,13.4c-3-0.7-6-1.4-8.9-2
				c-11.6-2.4-23.6-4.9-35.3-2.8s-23.2,9.9-26,21.5c-1.6,6.6-0.2,13.4,1.1,20c4.8,23.5,9.5,47,14.3,70.5
				c10.9,53.6,22.5,108.9,53.9,153.8c8.1,11.6,17.8,22.6,30.5,29l6.4-20.1c-1.3-10.7,5.5-20.6,12.9-28.5s15.9-15.2,19.7-25.3
				c3.8-10.3,2-21.8,0-32.7c-8.5-46.8-17.6-93.4-27.3-140c-1.9-9.2-4-18.6-9.6-26.1c-3-3.9-6.7-6.9-10.8-9.4
				c2.9,0.8,5.9,1.1,8.5-0.3c2.6-1.4,3.9-4,4.7-6.8c46.8,1.7,93.7,0.3,140.3-4.3c-2.4,1.1-4.6,2.3-6.6,4.1
				c-7.5,6.9-6.9,18.6-5.8,28.7c4.1,37.1,8.2,74.2,12.3,111.3c0.8,7.7,2.1,16.3,8,21.3c3.8,3.3,9,4.5,13.9,5.6
				c11.6,2.6,23.1,5.2,34.7,7.8c-19.5-3.2-31.2-7.3-51-8.8c-19.7-1.6-39.3,8.5-57.2,17c-13.6,6.5-25,16.7-36.2,26.7
				c-12,10.8-24.3,21.9-31.6,36.3c-12.1,24-7.8,53.8,4.8,77.5c12.6,23.8,32.5,42.7,52.6,60.6c1.8,1.7,3.7,3.3,5.7,4.9
				c0.4,1.3,0.8,2.7,1.5,3.9c3.7,7,11.1,10.9,18.2,14.5c18.3,9.3,36.7,18.5,55.9,25.9c55.3,21.4,116.6,26.7,174.8,15.1
				c20.1-4,41.3-11,53.5-27.5c11.2-15.2,12.4-36.1,6.7-54c-2.1-6.4-4.9-12.5-8.4-18.3c6.6-4.5,12.2-10.1,15.6-17.4
				c7-15,2.7-32.9-4.3-47.9c-16.5-35.6-48.3-63.8-85.6-76c6.1-15.2,12.3-30.6,14.2-46.9c1.8-16.3-1.2-33.8-11.9-46.3
				c-1.1-1.3-2.3-2.5-3.6-3.7c0.1-0.3,0.2-0.5,0.2-0.7c-0.7-0.3-1.4-0.5-2-0.8c-0.6-0.5-1.2-0.9-1.8-1.3c3.4,0.9,6.7,0.8,9.4-1.3
				c3-2.3,4-6.2,4.8-9.9c5.3-24.2,7.8-49.1,7.4-73.9l-3.7-19.4c19.7-1.7,39.3-3.3,58.9-5c1.9-0.2,3.9-0.4,5.9-0.7
				c4.2,3.5,10.2,5.4,15.8,5.6c8.6,0.4,17.2-2,25.8-2.3s18.3,2.4,22.6,9.9c1.1,1.9,1.7,3.9,2.2,6l-3.8,37.5
				c-8.9,48.9-17.8,97.9-26.7,146.8c-5.6,30.8-11.2,61.5-16.8,92.3c29.7,7.1,56,11,76.6-11.5c14.9-16.3,29.6-51.6,36.5-72.6
				c20.8-63.8,33.8-130.1,38.5-197c0.4-2,0.9-4,1.2-6c5.1-27.3,10.2-54.5,15.3-81.8c2.1-11.1,5.2-23.7,15.2-28.9
				c9-4.7,19.9-1.5,29.9-3.2c13.6-2.3,24.6-14.3,27.3-27.9C1421.9,941.3,1417.2,926.8,1408.3,916.2z M840.6,646.4
				c15.9-2.4,33.4-2.6,46.7,6.3c2.6,1.7,4.9,3.7,7.1,5.9c-4.7,44.9-6.3,90.2-4.6,135.3c0.3,8.8,1,18,6.1,25.3
				c3.3,4.7,8.1,7.7,13.4,9.9c-47.7,1.6-95.3,6.5-142.4,14.5c0.3,3,0.6,6.1,0.9,9.2l-23.4,4.2c2.2-3.9,1.8-8.8,1.3-13.3
				c-5.5-46.9-11-93.9-16.5-140.8c-1.9,0.3-3.8,0.7-5.7,1C755.7,673.5,796.9,652.9,840.6,646.4z M926.2,924.4
				c-5,19.1-10,38.3-15,57.4c-4.3,16.4-9.5,34.2-23.3,44.1c-11.6,8.3-26.8,9.1-41.1,9.6c-25.1,0.8-50.2,1.7-75.3,2.6
				c-15.5-7.1-35.1-3.3-49.3-12.7c-10.9-7.2-16-20.5-18-33.5c-2.7-18.4,0.1-38.1,10.8-53.3c9.5-13.6,24.6-22.6,40.4-27.8
				c5.8-1.9,11.8-3.4,17.8-4.5c0.1,0.7,0.1,1.3,0.2,1.9c42.9-5.6,85.8-11.2,128.7-16.7c6.8-0.9,14.3-1.6,19.9,2.4
				C930.8,900.3,928.9,913.8,926.2,924.4z M961.8,1170.3c-2.1,7.8-4.2,15.7-6.3,23.5c-1.8-0.9-3.5-1.7-5.3-2.6
				C952.8,1183.6,955.8,1175.5,961.8,1170.3z M963.8,1197.8c10.2,1.7,20.3,3.9,29.7,8.1c9.8,4.3,18.8,11,24.6,19.8
				c-3.9-3.1-8.5-5.5-13-7.7C991.4,1211.3,977.6,1204.6,963.8,1197.8z M993.7,1269.2c0.7,0,1.4-0.1,2.1-0.1l-1.5,2.6
				c-6.9-1.1-14.1-3.2-20.4-4.7C980.5,1268.3,987.1,1269.4,993.7,1269.2z M1055.6,1190.7c-17.4-6.7-34.8-13.3-52.2-19.9l-33.3-5.2
				c8.2-2.6,17.8-1.3,26.4,0.6c23.5,5.3,46.2,14.1,67.3,25.8C1061.1,1191.3,1058.3,1190.8,1055.6,1190.7z M1298.3,959.9
				c-0.7,14.4-1.5,28.9-5.6,42.8s-12,27-24.2,34.7c-13.2,8.3-29.7,9.3-45.3,8.8c-23.3-0.6-46.5-3.8-69.1-9.4c0,0.2,0,0.4,0,0.6
				l-24.2-4.7c-6.4,4.1-15.3,2.5-21.3-2.1c-6-4.6-9.8-11.4-12.9-18.2c-11.6-25-18.2-52.2-19.3-79.6c-0.3-7.2,0-15,4.5-20.8
				c7.7-9.9,22.9-8.6,35.6-7.4c23.5,2.3,47.4,0.9,70.5-4c27.2,2.8,54.2,7.2,80.9,13.4c8,1.8,16.4,4.1,22.2,9.9
				C1299,932.9,1298.9,947.2,1298.3,959.9z"/>
			<path class="st2" d="M992.4,1628.7c-21.3-14-48.5-17.7-73.5-12.5c-18.8,3.8-36.7,12.3-55.8,13.7c-18.8,1.3-37.9-4.8-52.6-16.6
				s-24.6-29.2-27.3-47.8l-23-17.5c-14,10.2-19.8,29.4-16.8,46.5s13.8,32.1,27.2,43.2s29.2,18.7,45.2,25.5
				c14.9,6.4,30.5,12.2,46.7,12.2c14.5,0,28.9-4.7,43.2-2.7c19.2,2.7,34.9,17.2,44.8,33.9c9.9,16.7,15.2,35.6,21.9,53.8
				c1.8,4.8,5,10.4,10.1,10c3.2-0.3,5.6-3,7.6-5.5c17.1-21.2,35.1-44.3,36.5-71.5C1028.1,1667.8,1013.7,1642.8,992.4,1628.7z"/>
		</g>
		<g>
			<path class="st3" d="M1123.5,826.7c7,8.5,18.9,10.8,29.7,12.6c24.9,4,49.8,8.1,74.7,12.1c3.9,0.6,7.9,1.2,11.6,0.1
				c10.1-3.1,12.3-16.3,12.6-26.8c1-34.5,2.1-69,3.1-103.5c0.3-10.9,0.5-22.5-5.2-31.8c-6.9-11.3-20.5-16.4-33.3-19.8
				c-26-7.1-52.8-11.2-79.7-12l-30.3,3.2c3,46.3,6,92.6,9.1,138.9C1116.6,809.2,1117.5,819.4,1123.5,826.7z"/>
			<path class="st3" d="M1188.3,1096.1c-13,0.6-26.9,2.7-38.3-3.5l-53.2,2c-0.6,36.2-1.2,72.3-1.8,108.5
				c-0.3,14.5-0.5,29.1-1.6,43.6c-1.4,18.7-3.9,38.7,5.5,54.9c6.1,10.6,16.5,17.8,26.5,24.8c15.6,10.8,31.3,21.6,46.9,32.4
				c17.4-72.2,34.8-144.3,52.2-216.5c2.7-11.3,5.2-24.1-1.1-33.8C1216.3,1097.6,1201.3,1095.5,1188.3,1096.1z"/>
			<path class="st3" d="M820.7,1089.3l-49,19.9c11.1,64.2,22.2,128.4,33.3,192.7c30.1-18,60.2-35.9,90.4-53.9
				c2.1-1.2,4.2-2.5,5.7-4.4c3.2-3.9,3-9.5,2.8-14.6c-2.7-46.3-5.5-92.5-8.2-138.8C870.6,1089.9,845.7,1089.6,820.7,1089.3z"/>
			<path class="st3" d="M746.4,825c0.3,6.8,1.7,15.3,8.3,17.3c2,0.6,4.2,0.5,6.3,0.3c35.1-2.6,70.3-5.2,105.4-7.8
				c9-0.7,19.7-2.3,23.8-10.4c2.1-4.1,2-8.9,1.8-13.5c-1.9-50.8-3.7-101.7-5.6-152.5l-31.5-8.4c-33.1,6.3-65.6,16.2-96.7,29.4
				c-4.7,2-9.6,4.2-12.8,8.3c-4.4,5.7-4.3,13.5-4,20.7C743.1,747.3,744.7,786.1,746.4,825z"/>
			<path class="st3" d="M1028.8,1545.5c-39.1-0.7-78-8.2-114.5-22.1c-18.2-6.9-34.2-15.5-46.5-30.8c-14.6-18-31.1-34.9-46.5-52.2
				l-48.2-52.3c-9.8,44.3-19.7,88.5-29.5,132.8c-0.9,4.1-1.8,8.6-0.3,12.5c2.7,7.3,11.7,9.5,17.9,14.2c13.6,10.2,13,31.3,23.8,44.3
				c6.1,7.4,15.3,11.5,24.1,15.3c11.4,5,22.9,9.9,34.3,14.9c19.1,8.3,34.2-1.7,52.9-6.5c19.3-5,39.5-7.4,59.3-4.2
				c30.4,4.9,59.9,25.1,68,54.8c1.3,4.6,2,9.4,4.3,13.6s6.5,7.8,11.2,7.5c4.9-0.2,8.8-4.3,11.7-8.3c19-25.3,27.8-56.7,43.3-84.3
				c11.3-20,26-37.9,40.7-55.6c-13.3,1.1-26.5,2.1-39.8,3.2C1072.9,1544.2,1050.8,1545.9,1028.8,1545.5z"/>
			<path class="st3" d="M938.3,1692.2c-5.6-6.8-11.8-13.3-19.4-17.7c-11.7-6.7-25.7-8.1-39.2-7.6s-26.9,2.7-40.3,2.3
				c-41.4-1.2-80.8-29.2-95.8-67.8l-26.2,57.1c-13.8,17.2-17,42.3-8,62.4c7.8,17.4,23.2,30,38,41.9c23.7,19,48.1,38.5,77.1,47.8
				c29.1,9.3,60.4,7.7,91,6c10.1-0.6,20.2-1.2,29.9-4.1s18.8-8.5,24.2-17c8.6-13.7,5.6-31.5,0.3-46.8
				C962.8,1728.1,952.1,1708.9,938.3,1692.2z"/>
			<path class="st3" d="M1291.1,939.8c-3.9-8.8-13.8-13.1-23-16.3c-60.7-21.1-125.1-31.5-189.3-30.6l-10.5,13.9
				c3.2,29,9.7,57.6,19.4,85c3.1,8.9,6.8,17.9,13.5,24.5c9.2,9,22.6,11.9,35.3,14c34.4,5.8,69.2,8.9,104,9.3
				c11.3,0.1,23.8-0.5,31.9-8.4c6.7-6.4,8.7-16.2,10.5-25.3c2.8-14.9,5.7-29.7,8.5-44.6C1292.8,954.2,1294.1,946.5,1291.1,939.8z"/>
			<path class="st3" d="M740.2,1035c8.9,4,18.7,5.2,28.4,6c35.3,3,70.8,2,105.9-3c3.8-0.6,7.7-1.2,11-3.1c5.7-3.3,8.8-9.7,11.5-15.8
				c13.1-29.3,26.2-58.7,39.3-88c3.3-7.4,6.6-16.1,3-23.4c-3.6-7.3-12.7-10-20.8-11.1c-51.2-7.1-102.3,14-154,14.3l-58.2,16.8
				c-2.2,20-4.3,40.4-0.2,60.1C710.3,1007.5,721.8,1026.8,740.2,1035z"/>
		</g>
		<g class="st4">
			<path class="st5" d="M1045.2,919.2c3.7,4.5,5.4,10.5,10,14.3c3,2.5,8.7,3,10.7-1.4c7.8-17.2-14.4-36.8-30.7-35.6
				c-6.3,0.5-8.2,8-3.1,11.6C1036.6,911.4,1041.5,914.8,1045.2,919.2z"/>
			<path class="st5" d="M963.9,898.4c-10.3,0.2-18.9,6-24.5,14.7c-3.9,6.2-7.8,24.6,5.1,22.7c5.6-0.8,9.3-7.8,12.7-11.7
				c3.8-4.4,8.1-8.4,12.1-12.6C973.8,906.8,970.7,898.3,963.9,898.4z"/>
			<path class="st5" d="M1325.5,940.1c-4.7-3.3-11.5-0.7-15.9,2c-4.7,2.9-8,6.6-10.8,11.4c-3.1,5.4,4.5,11.7,8.9,6.8
				c2.4-2.7,5.5-4.9,8.7-6.5c3.4-1.7,7.7-2.2,10.1-5.3C1328.8,945.7,1328.6,942.3,1325.5,940.1z"/>
			<path class="st5" d="M669.8,949.1c6.4,1.1,13.6,2.8,18.3,7.5c4.2,4.3,12.4,10,16,1.4c3.2-7.5-3.2-14.9-9.5-18.2
				c-7.6-3.9-15.2-2.8-23.3-2C665.6,938.6,663,948,669.8,949.1z"/>
			<path class="st5" d="M943.5,1010.3c-0.1,5.7,6.7,7.7,10.5,4.4c15.9-13.6,24.8-36.4,50-31.5c18.2,3.5,29.5,20.2,40.9,33.4
				c2.8,3.3,9.8,1.8,10.4-2.8C1064.2,948.5,945.1,939.5,943.5,1010.3z"/>
			<path class="st5" d="M1358.6,835.8c-17.6,2.8-31.9,11.8-50.2,4.9c-16.6-6.3-24.5-22.7-34.7-35.9c-2.7-3.5-9.1-1.4-9.9,2.6
				c-1.2,5.8-1,11.4,0.3,16.8c-4,0.3-7.2,5.2-5.3,9.6c5.9,13.6,17.3,29,33.9,26.4c0.8-0.1,1.5-0.4,2.1-0.8c2,1,4,1.9,6.1,2.7
				c20.6,7.8,54.3,6,65-16.7C1368.6,840,1364.4,834.9,1358.6,835.8z"/>
			<path class="st5" d="M1271.8,749.5c10.1-7,20.9-8.5,30.8-0.4c5.9,4.8,9.3,12.9,15,18.2c10.6,10,26,11.6,38.1,19.3
				c5.1,3.3,13.4-0.9,12.8-7.3c-0.5-5-2.1-8.7-4.6-11.8c8.6-8.3,1.7-19.8-5.8-26.2c-12.5-10.8-28.7-26.9-45.7-28.2
				c-1.7-0.8-3.4-1.5-5.3-2c-18.3-5.3-32.9,3.5-40.7,20c-1.1,2.2-0.6,4.4,0.6,6c-1.2,1.9-2.3,4-3.1,6.4
				C1262.4,747.7,1268,752.1,1271.8,749.5z"/>
			<path class="st5" d="M643.7,794.8c4.5-6,17.4-7.7,23.6-12.6c6.2-4.9,10.7-11.5,14.6-18.3c4.4-7.9,7.5-16.9,13.5-23.8
				c10.9-12.5,21.7-8.6,34.2-1.6c4.8,2.7,11.9-1.8,9.9-7.6c-6.8-19.7-27.2-23.3-43.9-16.4c-0.6-0.7-1.5-1.3-2.7-1.5
				c-8.4-1.7-16.7,1.3-23,6.8c-21.7,1.4-36.6,29.8-43.1,47.7c-2.1,5.7,1.1,10.5,5.8,12.7c-2,3.1-2.5,7.2-0.3,13.1
				C634.3,798.5,640.5,799.2,643.7,794.8z"/>
			<path class="st5" d="M712.3,864.3c21.2-8.3,29.6-25,26-46.7c-0.2-1.3-0.8-2.2-1.6-2.8c0.6-3,0.8-6.2,0.7-9.4
				c-0.3-5.3-6.6-6.7-9.5-2.6c-9.6,13.5-15.8,27.8-31.5,35.7c-19,9.7-35.7,3.1-55-0.3c-5.3-0.9-9.2,4.9-5.3,9.1
				c0.8,0.8,1.5,1.5,2.3,2.3c0,0,0,0-0.1,0c-4.2,1-6.4,7.4-2.7,10.3C654.5,875,690.8,872.8,712.3,864.3z"/>
			<path class="st5" d="M904.5,705.3c33.1-3.8,63.8-15.6,97.6-16.6c32-1,63.7,4.3,93.9,14.8c5.2,1.8,8.7-5.3,5.2-8.9
				c-0.8-0.9-1.7-1.7-2.6-2.5c6.5-2.4,10.7-10.2,6.7-17.6c-14.9-27.1-46.5-34.6-75.5-32c-6.1-0.7-13.6-1.4-21.9-2
				c6.4-0.4,12.8-1.3,17.7-1.6c7.5-0.6,15.5-2.3,20.7-7.5c0.8,0.3,1.6,0.6,2.5,0.7c3.4,0.5,6.5-0.8,7.7-4.3
				c1.5-4.7-0.2-9.5,0.7-14.3c1.1-5.9,5.5-9.9,10.7-12.5c9.7-4.8,25.6-2.2,31.9-11.9c1.1-1.6,1-4.1,0-5.7
				c-5.1-8.2-16.4-7.3-24.9-6.3c-2.5,0.3-5,0.8-7.4,1.4c-0.8-1.9-2.5-3.5-4.9-3.4c-10.3,0.3-19.8,4.5-26.3,11.5
				c-2.5-1.3-5.4-1.8-8.4-1c-14.8,4.2-27.8,4.4-42.3-1.1c-5.2-2-9.1-0.3-11.5,2.9c-0.8-0.8-1.6-1.6-2.4-2.2
				c-15.5-12.6-39-16.3-57.7-9.5c-5,1.8-5.8,9.5,0,11c11.9,3,24.9,5.4,35.8,11.5c4.5,2.5,9.1,5.9,10.8,11c1.6,4.9,0.7,10.3,2.3,15.3
				c1.3,4,5.5,6.9,9.8,5.6c2.4-0.8,4.3-1.8,6-3c0.8,4,2.6,7.6,7.3,10.4c2.1,1.2,4.5,2,7.2,2.5c-39.2-1-86.7,4.9-94.1,40.8
				c-0.1,0.2-0.2,0.3-0.2,0.4c0,0,0.1,0,0.1,0c-0.2,1.1-0.4,2.1-0.6,3.2c-0.5,4,0.8,6.8,2.8,8.8c0,0,0,0-0.1,0
				C896.7,696.5,897.2,706.1,904.5,705.3z"/>
			<path class="st5" d="M1097.5,786.3c-28.5,15.7-62.8,14.9-94.8,16.2c-32.4,1.3-66.2,4-93.3-16.8c-4.2-3.2-10.5,2.1-8.9,6.8
				c1.5,4.4,3.5,8.3,5.9,11.7c-1.5,2-2.3,4.6-1.7,7.2c3.5,14.2,15.9,19,29.8,20.9c21.2,2.9,43.2,2.5,64.5,3.5
				c30.2,1.4,75.1,10.7,93.4-20.9c7.9-3.8,14.1-9.7,16.6-19.8C1110.5,788.4,1103.5,783,1097.5,786.3z"/>
			<path class="st5" d="M976.2,1256.2c0.7,0.8,1.6,1.5,2.8,1.7c16.8,2.9,39.6,3.6,53.1-8.6c5.8-5.2,1.2-15.6-6.4-15.4
				c-1.4,0-2.8,0.2-4.1,0.4c0.7-1.4,1.2-2.9,1.6-4.5c1.1-5.2-2.2-8.9-7.2-9.5c-14.3-1.7-28.8,10.7-43.5,12.4
				c-15.3,1.8-30.7-0.7-46-1.4c-4.8-0.2-6.9,5.9-3.8,9.2C937,1255.2,956.6,1258.7,976.2,1256.2z"/>
			<path class="st5" d="M1091.2,1099.7c-8.6-8.7-18.9-15.2-27.8-23.4c-11.2-10.4-16.6-21.3-21.8-35.5c-7-19.2-16.2-40.9-39.1-44.4
				c-19.8-3-34.5,11.6-42.1,28.3c-6.2,13.6-10.8,26.7-19.9,38.8c-4.7,6.2-9.8,11.9-15.2,17.4c-5.8,5-11.4,10.4-16.7,16.1
				c-5.3,5.7-3.9,12.7,0.2,16.9c-2.4,5.8-3.2,12.2-1.7,19.2c1,4.6,7.1,5.8,10.2,2.7c24.8-24.5,53.4-43.8,89.8-42.1
				c15.9,0.7,31.5,5.7,44.8,14.4c12.1,7.8,20,19.4,33.6,24.9c4,1.6,8.1-2.4,8.2-6.2c0.1-5.9-1.3-11.3-3.6-16.2
				C1093.3,1108.2,1094.5,1103,1091.2,1099.7z"/>
			<path class="st5" d="M780,1153.8c-6.9-22.5-15.6-45.8-37.7-57.4c-21.3-11.3-44.7-7.5-66,1.2c0,0,0,0,0,0l0,0
				c-1,0.4-2,0.8-2.9,1.2c-8.6,3.8-7.2,14.9-1.2,20.2c-0.9,2.9,0.8,6.3,3.8,7.7c-2.7,3.5-2.2,9.6,3.1,10.5
				c21.9,3.8,43.2,7.4,61.4,21.2c15.8,12,21.6,30.7,35.7,43.2c3.5,3.1,11,2.6,11.8-3.1c1.7-11.7-3-23.4-10.2-33.7
				C780.2,1162.2,781.5,1158.4,780,1153.8z"/>
			<path class="st5" d="M1320.7,1096.7c-7.7-4.4-16-5.5-24.2-4.3c-1-1.5-2.6-2.5-4.9-2.2c-3.6,0.4-7.2,0.8-10.7,1.3
				c-9-6.3-22.6-0.5-30.9,5.7c-0.3,0.2-0.6,0.5-0.9,0.7c-1.1,0.6-2.2,1.3-3.3,2.3c-9.8,9.5-16.4,21.4-18.6,34.9
				c-0.8,4.9,1.2,9.3,4.3,12.2c-9.9,18.7-15.5,40.4-11,59.8c1.3,5.5,8.3,5.4,11.1,1.4c13.9-19.8,16.3-45.2,31.1-64.9
				c15.8-21,36.8-23.2,58-34.9C1325.3,1106.3,1325.2,1099.3,1320.7,1096.7z"/>
			<path class="st5" d="M1058.3,1336.2c2.8-5.2-2.9-11.7-8.3-8.3c-7.8,4.9-12.2,10.4-11.7,19.8c-2.7,0.3-4.9,2.1-4.5,5.6
				c0.8,7.1,4.3,11.7,8.8,16.2c-1-0.2-2-0.5-3-0.9c-5.7-2.1-12.5,2.3-14.4,7.9c-0.5-0.3-1-0.7-1.6-1c-16.2-9.7-37.9-11.4-49.7-27.6
				c-4-5.5-14.1-2.5-11.8,5c7,22.4,24.9,29.6,44.2,39.9c18.1,9.6,29.4,31.3,52.4,29.8c15.9-1,30.6-14.1,30.5-30.6
				C1089.3,1372,1049.5,1352.7,1058.3,1336.2z"/>
			<path class="st5" d="M976.7,1316.5c-3.1,1.1-6.2,1-9.4,1.6c-4.4,0.9-6.2,7.4-2.7,10.4c7.6,6.6,27.2,4.5,26.9-8.3
				c0-2.3-1.8-5.3-4.3-5.6C983.2,1314,980.4,1315.2,976.7,1316.5z"/>
			<path class="st5" d="M651.8,724.4c13.7-10.7,28.6-19.9,44.5-26.8c12.5-5.5,28.7-6.8,40.1-14c4.2-2.6,7.2-6.3,8.6-10.6
				c3.4,0,7-0.8,10.5-2.7c4.6-2.5,3.5-9.7-1.5-11.1c-17-4.7-16.2-21.7-5.2-32.4c5.7-5.5-1.6-14.8-8.4-10.9
				c-4.5,2.5-8.4,5.8-11.6,9.6c-2.1-3.1-6.6-4.8-10-2.5c-3,2-5.3,4.3-7.2,6.9c-1.5,0.7-2.9,1.7-4.2,3.2
				c-17.6,20.3-37.5,33.9-60.1,47.8c-14.7,9-25.6,24.3-14.8,41C637.3,729.1,645.4,729.4,651.8,724.4z"/>
			<path class="st5" d="M1271.7,635.3C1271.7,635.3,1271.7,635.3,1271.7,635.3c9.3,5.6,18.2,13.2,19.7,24.7
				c1.2,9.6-4.7,18.2-4.3,27.8c0.1,4.3,3.7,6.3,7.6,5.8c1.7-0.2,3.1-0.7,4.6-1.3c2.2,2,5.9,2.6,8.6,0.3c10.5-9,17.5-19.1,16.7-33.6
				c-0.7-11.9-5.6-27.3-18.7-30c-2.7-0.5-5.6,0.3-7.3,2.3c-6.4-5.4-14.5-8.8-23.2-8.9C1267.4,622.2,1266.8,632.1,1271.7,635.3z"/>
		</g>
		<g class="st4">
			<path class="st6" d="M772.3,614.8c6.4,3.7,12.6,9.1,14.3,16.7c1.9,8.6-3.3,15.2-6.8,22.5c-2.3,4.9,1.6,11.5,7.4,9.7
				c5.5-1.7,9.6-4.7,12.4-8.5c2.7,1.8,6.1,2.6,9.3,2c15.6-3,31.2-6.3,46.8-9.5c10.2-2.1,27.1-2.1,34.9-10.2c1-1,1.7-2.1,2.3-3.2
				c5,2,10.6,2.7,16.2,1.5c4.9-1,6-8.7,1.4-10.9c-6.8-3.4-14.6-6.7-19.5-12.7c-6.2-7.6-5.7-16-6-25.2c-0.2-5.8-7.3-7.8-10.7-3.5
				c-0.6-5.1-7.1-7.5-10.5-2.5c-1.4,2-2.6,4.5-3.6,7c-2.2-4.6-7-7.7-12.6-6c-18.9,5.8-37.8,11.7-56.7,17.4c-3.8,1.2-6.2,4-7.2,7.2
				c-2.7-1-5.6-1.6-8.7-1.7C769.6,604.7,767.7,612.2,772.3,614.8z"/>
			<path class="st6" d="M1122.3,636.8c0.5,1.2,1.2,2.3,1.9,3.4c0.6,4.3,3,8.4,8,10.4c32.2,13.1,65.7,19.5,100.4,19.6
				c4.9,0,9.5-3.5,11.4-7.9c2.2,1.4,4.5,2.4,6.8,2.8c4.4,0.8,8.3-2.6,7.2-7.2c-1.9-8.1-9.8-12.8-13.6-20c-4.1-7.6-2.7-13.6-0.1-21.3
				c1.6-4.6-3.7-8-7.6-6.4c0.2-0.4,0.3-0.9,0.5-1.3c6.4-14.2-12.3-25.8-21.1-12.3c0,0,0,0,0,0.1c-2.6-2.3-5.9-3.4-9.2-3.2
				c-4-5.3-12.9-7-18-2.8c-2.9-1.5-6.1-1.8-8.9-0.6c-4-6.7-14-9.6-19.4-3.1c-3-4.7-10.2-3.3-13.1,0.9c-0.9-0.7-1.9-1.2-2.9-1.4
				c-12.8-3.2-12,13.6-16,21c-6.3,11.6-17.6,10.9-28.7,13.9c-4.6,1.2-7.3,8.2-3,11.5C1104.2,638.6,1113.6,639.3,1122.3,636.8z"/>
			<path class="st6" d="M1274.6,795.6c1.6,1.1,4.4,1.2,6,0c6.6-4.9,5.4-12.8,4.7-20.1c-0.5-5.1-2.8-16.8-10.7-12.5
				c-5.6,3-5.1,10.5-5.4,16C1268.9,785.3,1269,791.7,1274.6,795.6z"/>
			<path class="st6" d="M1298.2,806.5c1.4,1.1,4.3,1.1,5.7,0c1.7-1.3,2.7-2.4,3.4-4.4c0.5-1.6,0.9-3.4,0.9-5c0-3.1-0.2-6.5-2-9.2
				c-2.5-3.8-7.8-3.8-10.3,0c-1.7,2.7-2,6.1-2,9.2c0,1.5,0.3,3.2,0.8,4.6C1295.3,803.8,1296.4,805.1,1298.2,806.5z"/>
			<path class="st6" d="M1354.2,825.2c12.6,1.5,14.2-20.5,9.5-28c-2.6-4.2-9-5.5-12.6-1.6C1345.3,801.9,1341.6,823.7,1354.2,825.2z"
				/>
			<path class="st6" d="M1095.8,771.4c20.7-2.7,4.1-44.4-0.4-54.4c-2.4-5.3-11.5-4-12.6,1.6C1080.9,729.4,1075,774.1,1095.8,771.4z"
				/>
			<path class="st6" d="M903.4,717.9c-4.8,6.7-4.7,16.7-4.8,24.7c-0.2,9-0.3,17.6,4.2,25.7c3.2,5.6,12.5,6.1,15.5,0
				c4.4-8.8,3.8-17.7,3.1-27.3c-0.6-8.7-1.4-17.5-6.9-24.5C911.4,712.6,905.8,714.6,903.4,717.9z"/>
			<path class="st6" d="M944.8,758.1c5.2-5,2-13.6,1-19.8c-0.5-3.3-4.4-5.3-7.5-4.9c-3.4,0.5-5.7,3.2-5.9,6.7
				c-0.3,5.5-2.3,14.1,2.7,18C938.1,760.4,941.9,760.9,944.8,758.1z"/>
			<path class="st6" d="M1057.5,756.4c6,0,9.5-6.4,9.5-11.6c0.1-4.5-0.5-9.5-3.1-13.2c-3.4-4.8-9.5-4.8-12.8,0
				c-2.6,3.6-3.1,8.3-3.1,12.6C1047.9,749.6,1051.3,756.4,1057.5,756.4z"/>
			<path class="st6" d="M640.9,828.9c2.6,3.4,8.2,4.5,10.6,0c1.4-2.7,2.3-5.2,1.9-8.6c-0.3-2.8-0.8-5.7-1.8-8.2
				c-1.1-2.7-3.2-4.8-6.3-4.8c-2.8,0-5.7,2-6.3,4.8c-0.6,2.7-0.9,5.4-0.8,8.2c0,1.5,0.1,3.3,0.6,4.8
				C639.2,826.7,640.2,828,640.9,828.9z"/>
			<path class="st6" d="M662.9,824.1c2.7,1.8,5.9,0.3,7.6-2c1.5-2.1,1.2-4.4,0.8-6.8c-0.4-2.8-1.5-4.7-3.8-6.3c-2.6-1.8-6-0.3-7.6,2
				C657.2,814.9,659.1,821.7,662.9,824.1z"/>
			<path class="st6" d="M719.5,783.3c2.4,2.4,7.3,2.8,9.6,0c4.1-5,4.2-11.4,3.8-17.6c-0.4-6.2-0.6-13-6.3-16.7c-2.7-1.7-5.8-0.8-8,1
				c-4.7,3.7-4.1,11.2-4,16.6C714.8,772.4,715.2,779,719.5,783.3z"/>
			<path class="st6" d="M784.1,1352.5c2.3-9.1-0.3-16-5.2-22c6.4-1.7,12-5.9,15.4-12.2c2.8-5.2-2.7-9.8-7.6-7.6
				c-19.2,8.6-28.2-15-35.2-27.1c-7-12-16.5-22-24.3-33.5c-16.2-24.1-18.3-50.9-29.9-76.3c-2.9-6.3-13-4.3-14.5,1.9
				c-7.7,30.3,7.7,58.2,25,83.5c-3.8,0.9-6.7,6.1-4.2,9.5c2.8,4,5.3,8.2,7.6,12.5c-2.3,2.5-3.2,6.2-1.5,10.6
				c5.9,15.4,11.7,31,17.8,46.3c3.8,9.5,7.5,18.8,15.9,25.2C757.1,1373.8,779.3,1371,784.1,1352.5z"/>
			<path class="st6" d="M919.5,1150c-10.7,7.2-6.4,23.8-5.5,35c0.5,6.5,0.2,14.2,5.5,19.1c3.3,3.1,7.7,4.3,11.7,2.4
				c11.7-5.4,6.8-23.3,5.6-33c-0.7-5.6-0.4-13.8-3.5-18.7C930.8,1150.7,924.1,1146.9,919.5,1150z"/>
			<path class="st6" d="M1088.9,1175.3c0.1-3.4,0.2-6.8-0.2-10.2c-0.5-4.1-1.7-7.5-2.6-11.4c-1.9-8.4-13.9-7.6-16.3,0
				c-1,3.2-2.4,6.1-3.1,9.4c-0.8,3.7-0.9,7.4-1.1,11.1c-0.3,7.4,2.1,17,11.3,17C1085.9,1191.3,1088.7,1182.5,1088.9,1175.3z"/>
			<path class="st6" d="M1058,1216.5c-0.5,3.3-0.6,6.3,1.2,9.3c1.5,2.5,4.3,4.9,7.2,5.5c3.1,0.7,6.5,0.6,9.3-1.2
				c2.8-1.8,4.2-4.1,5.5-7.2c-1.6,3.9-0.8,2.1-0.3,1.1c1.8-3.2,2-6.8,0.6-10.2c-1.5-3.5-4-5.3-7.4-6.7
				C1067.7,1204.7,1059,1209.8,1058,1216.5z"/>
			<path class="st6" d="M1086.1,1246.1c-4.5-2.2-9.7-5.5-14.8-4.9c-3.9,0.4-7.3,1.8-9.4,5.4c-2,3.5-1.9,7.6,0,11
				c2.5,4.7,7.5,7.1,11.9,9.6c4.6,2.5,11.1,2.1,14.8-1.9c1.5-1.6,2.7-3.2,3.1-5.4C1092.8,1254.9,1091.1,1248.6,1086.1,1246.1z"/>
			<path class="st6" d="M1067,1271.5c-0.3,0-0.7,0-1.1,0.1c-0.6-0.7-1.1-1.4-1.7-2c-8.8-8.9-19.5-11.5-31.1-7.2
				c-4.8,1.8-5.3,6.5-3.1,9.5c-1,0.9-2,2-2.8,3.2c-4.5,6.3,1.7,13.5,8.1,14.1c7.1,0.6,7.4,4.1,5.4,10.8c-2.2,7.3-6.1,13.9-7.6,21.5
				c-0.7,3.7,2.6,8.6,6.9,6.9c8.9-3.5,16.3-10.2,20.7-18.5c2.5,0.8,5.4,0.6,8.5-0.8c7.6-3.7,12.9-10.9,13-19.5
				C1082.2,1280,1076.6,1272.4,1067,1271.5z"/>
			<path class="st6" d="M972.4,1197.1c10.6-8.9,24.3-5.4,36.2-1.3c5,1.8,11.5,3.7,15.5,7.5c4,3.7,4.4,9.3,5.6,14.5
				c0.8,3.8,5.5,6.5,9.2,5.2c11.6-4,14.7-16,9.6-26.8c-5.5-11.6-17.9-17.6-29.3-21.8c-12.6-4.7-29.5-9.4-42.7-4.6
				c-10.3,3.8-17.8,13.8-13.7,24.8C964.3,1198.8,968.9,1200.1,972.4,1197.1z"/>
			<path class="st6" d="M1303.5,1171.4c-8.8,16.6-10.9,35.9-19,52.9c-8.4,17.6-21.1,30.8-32.8,46c-10.9,14.1-10.8,29.1-14.4,45.8
				c-4.6,21.1-21.7,50-45.8,35.8c-8.4-4.9-15.9,3.2-14.8,11.4c0.8,5.9,3.4,10.2,7.2,13.2c-0.8,1.9-0.6,4,1.5,5.6
				c12.5,9.7,27.1,10.3,40.5,5.4c3.8,6.3,12.4,9.7,18.7,2.7c29.7-33.1,46.3-73.4,48.4-117.8c0.2-4.1-1.3-7-3.5-9
				c3.7-4.9,7.3-10.1,10.4-15.5c12.3-21.1,25-50.1,17.7-74.7C1315.5,1167.3,1306.7,1165.6,1303.5,1171.4z"/>
			<path class="st6" d="M916.4,1368.8c1.7-11.3,10.1-20.4,9.2-32.3c-1-13.3-13.3-24.1-1.4-36.5c9.5-9.9,25.9-11.7,36.9-20.3
				c4.2-3.3,1.5-10.2-3-11.4c-7.2-2-15-2-22.6-0.3c-0.5-2.7-2.5-4.9-6.1-4.9c-3,0.1-5.9,0.5-8.8,1.2c-2-2.3-4.9-3.8-8.9-3.8
				c-3.2,0-6.3,0.3-9.3,0.8c-30.4,3.3-61.8,15.3-61.4,51.6c0.3,30.8,24.7,73.3,52.6,86.9c1.5,0.7,3.1,1.1,4.7,1.1
				c3.8,6.7,9.4,12,17.2,13.6c6.6,1.3,11-3.8,10.1-10.1C923.6,1391.2,914.2,1383.1,916.4,1368.8z"/>
			<path class="st6" d="M981.7,1438c4.2-2.6,5.1-8.4,1.5-12c-4.2-4.3-9.9-6.9-15.4-9c-5.7-2.2-11.2-5.8-17.4-6.1
				c-6-0.3-10.4,6.1-8.9,11.7C945.8,1437.1,968.8,1446,981.7,1438z"/>
			<path class="st6" d="M1136.3,1351.6c-3.4-15.6-9.9-28.8-30.4-31.3c-5.6-0.7-7,6.6-4.1,10c6.9,8.3,14.1,15.8,16,26.7
				c1.6,9.2-1,18.1,1.6,27.3c2.2,7.7,8.4,14.2,9.9,22c2.5,12.9-5.6,23.1-14.6,31.2c-4.6,4.1,0.3,10.8,5.6,9.7
				c8.8-1.9,15.2-6.3,19.6-12.1c1.2,0.7,2.7,1,4.1,0.6c37.2-11.5,29.8-61.2,9.2-84C1148.5,1346.2,1140.9,1347.3,1136.3,1351.6z"/>
			<path class="st6" d="M901.5,1415.2c-3.6-2-7.1-2.9-10.5-3c1.2-5.2-1.2-11.4-5.7-14.2c-14.2-8.8-26.2-19.8-35.4-33.8
				c-7.8-12-9.3-26.7-16.5-38.4c-14-22.6-36.7-3.8-44.5,13c-11.5,24.7-4.9,52.2,6.7,75.4c7.7,15.4,17.8,29.6,27.9,43.5
				c6.8,9.2,11,17.2,23,18c1.2,0.1,2.4-0.1,3.6-0.5c3.1,3.2,6.9,6,11.6,8.3c0.4,0.2,0.8,0.3,1.2,0.4c3.7,9.2,9.7,16.6,18.6,18.7
				c4.9,1.2,9.6-2.3,9.7-7.4c0.3-12.9-9.9-23.1-10.8-36.5c-1.1-15.8,5.2-26.1,19.7-32C904.7,1424.9,906.8,1418,901.5,1415.2z"/>
			<path class="st6" d="M1146.6,1445.8c-7.1-5.3-15.9,1.1-17.3,8.5c-1.9,0.4-3.9,1.3-5.8,2.8c-2.2,1.7-3.1,4-2.9,6.1
				c-7,1-12.5,6-7.3,14.2c1.7,2.6,4.3,4.1,6.2,6.4c2.9,3.5,3.9,7.5,4.5,12c1.3,10,0.1,17.6-9.5,22.5c-4.7,2.4-3,9,1.4,10.4
				c12.3,4.1,22.3-4.9,26.9-15.6c4.1,0.7,8.5-0.8,11.3-5.5C1166.2,1488,1166.5,1460.4,1146.6,1445.8z"/>
			<path class="st6" d="M772.8,1574.4c0.3-1.4,0.7-2.9,1.1-4.4c4.4-15.1-19.2-21.6-23.6-6.5c-3.2,11.1-4.8,22.4-4.6,34
				c0.1,6.6,4.4,10.6,9.5,11.6c0.3,1.4,0.6,2.8,1.2,4.3c2,5.4,9.4,16.6,16.2,9.8c7.3-7.3,4.8-21.3,9.9-30.3
				C786.9,1585.4,781.1,1574.8,772.8,1574.4z"/>
			<path class="st6" d="M1025.3,1672.2c-2-11.1-18.9-10.2-21.5,0c-2.8,10.8-8.8,19.5-19.3,24c-9.7,4.1-19.6,1.4-29.4,4.2
				c-4.9,1.4-5.5,6.8-2.7,10.3c3,3.8,6.9,6.1,11.3,7.5c-1.6,4.9-0.4,10.6,5.4,13.5c5,2.6,8,7.3,5.3,13
				c-6.8,14.1,14.4,26.6,21.1,12.3c6.9-14.5,17.7-28.6,20.9-44.3C1024.4,1701.7,1028.1,1687.4,1025.3,1672.2z"/>
			<path class="st6" d="M1325.3,1003.3c-3.2,6.5-9.4,13.6-15.3,18c-6.9,5.2-11.6,4.1-19.6,3.6c-5.6-0.4-9,4.3-9.2,9.1
				c-26,0.4-52,0.7-78,1.1c-32.6,0.4-65.8,2.6-97.9-4.2c-1.9-0.4-3.8-0.4-5.5-0.1c-1.1-15.8-13-27.4-21.4-40.5
				c-1.7-2.7-6.3-4-8.6-1.1c-7.6,9.5-5.4,19.2,0.4,29.2c3.2,5.5,7.3,10.1,5.9,16.8c-1.4,7-7.9,8.8-12.6,13.3
				c-6.9,6.6-1.3,17.3,7.4,17.8c0.7,0,1.3,0,1.9,0c-0.3,0.5-0.6,1-0.9,1.5c-4.5,7.3,1.2,19.4,10.6,18.4
				c52.7-5.9,104.7,11.3,157.7,7.8c32.5-2.2,95.7-11.5,92.6-56.8c-0.2-2.8-2-5.3-4.4-6.8c4.8-7,6.8-15.1,6.8-24.5
				C1335.1,1001,1327.6,998.4,1325.3,1003.3z"/>
			<path class="st6" d="M1410,920.6c-2-3.3-5.6-5.1-9.4-5.5c-1.9-2.4-4-4.7-6.2-6.9c-0.2-0.4-0.4-0.8-0.6-1.2
				c-1.7-3.2-4.3-5-7.2-5.6c-4.6-3.4-9.6-6.4-14.9-8.8c-12.9-5.8-29.8-10.3-45.7-10.2c-0.3-1-0.8-1.9-1.7-2.7
				c-12.2-12.1-30.9-13.7-47.2-17c-20-4.1-40.3-7.2-60.5-9.7c-41.2-5.2-83.8-8.4-125.4-5.6c-0.7-1.4-1.9-2.6-3.8-3.2
				c-38.5-10.9-85.3-5.1-124.9-3.7c-44.8,1.6-89.5,4.6-134,10.2c-39.4,5-78.6,11.9-117.1,21.8c-19.3,5-38.3,10.7-57.1,17.3
				c-17.3,6-37.7,12.1-53.5,22.2c-19.4,7.5-15.5,40.4-12.4,56.4c1,5.4,6.7,8.8,11.8,9c9.7,0.4,19.5,0.7,29.2,1.1
				c4.9,0.2,8.7-2.8,10.6-6.7c0.7,0.4,1.4,0.8,2.1,1.2c9.9,5.9,16.2,13.7,19.9,24.8c1.5,4.6,9.3,5.6,10.3,0
				c1.6-9.2,1.5-16.9-3.3-25.2c-4.7-8.1-13.3-11-18.8-17.5c-19.3-23,54.4-34.4,67.4-36.5c2.3-0.4,3.7-1.9,4.3-3.8
				c67.3-14.5,135.3-25.6,203.9-32.4c-0.6,3,1.5,6.9,5.2,7.1c24.8,1.3,49.6,0,74.4-0.1c21.9-0.1,44.2,2,65.9-0.8
				c2.1,2.3,5,3.8,8.5,3.8c40.4-0.2,80.8,2.6,120.6,9.4c17.9,3,35.7,6.8,53.3,11.2c16.3,4,32.5,11.4,49.2,7.7
				c-0.3,4.7,4.5,9.1,9.2,7.5c10.3-3.5,21.1-11.7,32.6-9.4c12.2,2.4,20.8,14.5,13.8,26.1c-9,14.8-33.8,18.5-27.2,41
				c1.1,3.8,6,5.3,8.9,2.3c7.4-7.7,17.5-12.6,26.2-18.9c0.1,0.2,0.2,0.4,0.4,0.5c-0.5,1-0.9,1.9-1.5,2.8c-5.8,9.9,3.7,19.7,13.8,18
				c9.8-1.7,16.9-6.1,22.1-12c3.3-0.5,6.4-2.2,8.5-5.5C1420.1,956.3,1420.1,937.5,1410,920.6z"/>
			<path class="st6" d="M774.1,1089.4c48.2,3.1,96.8-1.9,144-11.7c5.9-1.2,8.7-6.1,8.7-11.2c1.8-0.6,3.6-1.6,5.4-3.1
				c4-3.4,2.9-10.9-1.7-13.2c-2.4-1.2-6.3-1.5-7.8-3.7c-2.2-3.3-0.1-9.5,0.7-12.9c1.7-7.4,4.4-14.7,5.6-22.2c0.8-5.2-4.5-8.4-8.7-5
				c-6.4,5.2-12.1,13.7-15.3,22.7c-3.1-2.1-7-3.2-10.5-2.8c-39.3,5.4-78.9,8.1-118.5,8c-17.6-0.1-36.3-2.9-52.2,2.1
				c0.1-0.8,0.2-1.6,0.2-2.5c0-4.6-5.4-8-9.4-5.4c-5.8,3.7-9.4,10.1-17,10.4c-7.7,0.4-11.8-5.7-18-8.9c-3.4-1.8-7.5,0.4-7.6,4.4
				c-0.1,2.8,0.7,5.4,2,7.8c-2.3,2.1-3.4,5.5-1.4,8.3C694.2,1081.7,738.8,1087.2,774.1,1089.4z"/>
		</g>
		<g>
			<path class="st7" d="M884.9,451.5c-17.3-12.6-38.2,8-44.2,23.6c-3,7.8-2.5,11.5-11.5,12.1c-4.5,0.3-8.3-0.6-12.9,0.7
				c-8.4,2.5-14.5,8.4-15.9,17c-0.8,4.8,3.8,9.3,8.5,6.5c3.6-2.1,8.1-5.7,12.1-6.6c3.9-0.9,8.1,0.5,12,0.5c5.9,0,11.1-0.8,15.5-5.4
				c4.3-4.5,5.1-10.3,7.1-15.8c2.4-6.8,5.9-13.6,12.5-17.2c4.5-2.5,10.6-2.8,15.5-4.8C888.3,460.1,889.1,454.5,884.9,451.5z"/>
			<path class="st7" d="M878.9,474.4c-5.2-0.5-9.2,3.1-11.6,7.4c-2.9,5.1,3.8,10.2,8,6.2c1-0.9,1.8-1.3,3-2.1c1.3-0.9,2.5-1.9,4-3.2
				C885.6,479.5,882.8,474.8,878.9,474.4z"/>
			<path class="st7" d="M712.4,504.1c-1.9-1.1-3.9-1.6-6-1.6c-1.5-3.3-5.2-5.1-8.7-4.1c-1.1,0.3-2.1,0.8-3.1,1.2
				c0.4-0.2-1.3,0.4-2,0.9c-0.8,0.5-1.5,1-2.1,1.6c-1.8,1.4-3.2,3.1-4.4,5.1c-1.5,2.5-2,6.2-0.5,8.8c0.7,1.3,2.1,2.3,3.5,2.8
				c-0.2,2.8,0.6,5.5,2.8,7.5c1.2,2,4,2.9,6.1,2.3c1.7-0.5,2.7-1.6,3.4-3c1.9-2,2.7-4.3,4.8-5.9c3.6-2.9,7.2-4.7,8.7-9.5
				C715.6,507.9,714.3,505.3,712.4,504.1z"/>
			<path class="st7" d="M640.7,579.2c-3,2-3.2,5.5-1,8.2c4.7,5.9,13.2,7.9,18.4,13.5c5,5.4,6.6,15.5,13.3,18.9
				c2.5,1.3,6.5,1.4,8.5-1.1C693.6,601.4,658.6,567.4,640.7,579.2z"/>
			<path class="st7" d="M635.6,634.8c-2.1-6.4-10.5-4.7-11.2,1.5c-0.7,6.2-1.5,12.1-5.5,16.9c-5.2,6.3-10.7,6.8-13.8-1.2
				c-2.1-5.3-2.5-9-7.3-12.7c-6.1-4.7-8.8-6.6-9.1-15.1c-0.4-9.6,2.4-17.7,5.1-26.7c1.7-5.4-5.9-10.1-9.8-5.7
				c-5.9,6.8-10,15.5-11.7,24.7c-2.6-1.1-6.5,0-7.8,3.2c-0.8,2.1-1.4,4.2-1.8,6.2c-1.8,1-3.3,2.5-4.3,4.7
				c-11.1,24.8-6.4,55.8,20.3,68.3c23.2,10.8,50.2-2.7,55.4-27.9c0.6-2.8-0.1-5.4-1.4-7.3C638.4,655.5,638.9,644.8,635.6,634.8z"/>
			<path class="st7" d="M551.2,560.3c0.7,5.1,8.4,9.2,11.2,3c6-13.4,15.2-29.1,26.2-39c12-10.8,27.6-13.8,41-22
				c3.8-2.3,4.7-9.2,0-11.3c-18.8-8.3-40.2,0.8-55,13.2C557,519,548.3,537.9,551.2,560.3z"/>
			<path class="st7" d="M606.3,520.3c-5.4,3.1-1.8,11.8,4.3,10.1c5.7-1.6,13.3-2.6,15.5-9c0.7-2-0.4-5-2.4-5.9
				C617.4,512.6,611.5,517.3,606.3,520.3z"/>
			<path class="st7" d="M728.4,395.2c-2.9-12.2-13-20.6-25.1-25.8c-16.5-27.8-72.2-8.5-83,15.3c-1.5,3.4-0.9,7.2,1.2,9.7
				c-2,5.3-3.5,10.8-5.5,16.2c-1.7,3.4-3.3,7-4.6,10.7c-2,5.8,0.9,10.7,5.4,13.3c-2.4,1.2-5,2.4-7.7,3.9c-4.3,2.2-4.2,9,0,11.3
				c17.7,9.4,33.3-2.4,41-18.6c4-8.4,4.4-17.2,18.9-18c4.4-0.2,9.1,2.3,13.8,2c4.6-0.3,9-3.5,13.3-3.7c8.8-0.4,15.7,6,23.8,8
				c4.3,1.1,7.8-2,8.2-6.2c0.3-3.7-0.4-6.8-1.8-9.6C728.1,401.4,729.1,398.2,728.4,395.2z"/>
			<path class="st7" d="M693.7,430.1c-0.1-1.8-0.7-3.5-2-4.8c-1.7-1.7-3.9-2-6.2-2c-0.7,0-1.4-0.1-2.1-0.1c-0.5,0-3.3,0.3-2.7,0.3
				c-0.4,0-0.8,0-0.8,0c-1.1,0.1-2.2,0.2-3.2,0.6c-5,1.9-6.4,7.1-3,11.3c2.4,2.9,7,3.9,10.7,3.4C688.6,438,693.9,434.7,693.7,430.1z
				"/>
			<path class="st7" d="M536.1,467.2c3.4-4.1,4.7-9.3,7.6-13.7c2.9-4.3,6.9-7.8,9.6-12.3c2.5-4-0.8-8.4-5-8.7
				c-14.2-1.2-29.8,21.4-20.5,33.7C529.6,468.6,533.7,470.1,536.1,467.2z"/>
			<path class="st7" d="M828.1,330.3c5.3-1.2,10.2-5.3,15.4-6.3c8.6-1.6,15.9,4.8,23.4,7.5c4.1,1.4,8.8-1.6,9.9-5.6
				c1.8-6.6,0.2-12.3-3.3-16.8c0.2-0.8,0.2-1.8-0.2-2.8c-22.3-56.5-93.3-32.1-114.2,13c-2.3,5.1-1,10.5,2,14.1
				c-0.5,0.8-1,1.6-1.5,2.4c-6.8,11.3-11.1,12.8-22.4,18.5c-6.5,3.3-9.8,7.2-11.5,14.3c-1.6,6.8,5.2,11.2,11,8.5
				c9.7-4.5,20.7-3,29.5-10c11.6-9.2,13.8-28.2,26.4-36.2C803.1,324.2,815.8,333.2,828.1,330.3z"/>
			<path class="st7" d="M823.4,340.1c-2.5,0.4-5.2,0.5-7.5,1.4c-3.4,1.4-5.3,5.7-2.3,8.6c5.2,5,17,5.5,22-0.2
				c2.8-3.3,2.2-9.6-2.8-10.6C829.5,338.7,826.6,339.6,823.4,340.1z"/>
			<path class="st7" d="M700.5,321.7c5.5-0.8,9.5-8.3,12.8-12.1c2-2.4,4.2-4.6,6.2-6.9c2-2.3,4.4-4,6-6.6c2.8-4.4-0.9-9.7-5.7-10
				c-9.1-0.4-18.1,7.4-22.9,14.4C693.2,305.9,688.2,323.4,700.5,321.7z"/>
			<path class="st7" d="M907,223c-13.6,2-35,7.9-35.8,24.5c-0.1,2.9,2.1,5.4,4.7,6.2c11.2,3.6,23.2-5.2,34.3-6.7
				c12.6-1.7,25.1,2.3,37.5-0.1c4.4-0.9,7.1-7.1,4.4-10.8C942,221.8,923.2,220.6,907,223z"/>
			<path class="st7" d="M909.4,256.2c-2.6,0.5-4.2,3.4-3.8,5.9c0.4,2.8,2.5,4.4,5.2,4.6c3.4,0.3,7.5,0.9,10-2c1.8-2.1,2.1-5,0-7.2
				C917.6,254.3,913.3,255.5,909.4,256.2z"/>
			<path class="st7" d="M1071.7,207.9c7.8,0.3,17.5,2.1,24.2-3c3.1-2.3,4.6-6,2.5-9.6c-5.2-9.2-17.2-10.1-26.7-9.2
				c-9.3,0.9-21.9,3.2-28,10.9c-2.9,3.7-2.3,9.6,2.9,10.9C1054.5,209.9,1063.4,207.6,1071.7,207.9z"/>
			<path class="st7" d="M1148,254c4.9,2.8,9,8.3,14.8,9.2c2.6,0.4,4.9,0.1,6.8-1.8c1.6-1.6,2.7-4.6,1.8-6.9c-1.8-4.6-5.1-7.2-9.5-9
				c-1.7-0.7-3.4-1.1-5.2-1.4c-2.3-0.4-3.8-0.1-6.1-0.1C1145.5,244.1,1143.4,251.4,1148,254z"/>
			<path class="st7" d="M1191.2,274.7c11.9-1.5,22.2-5.4,34.3-1.4c11.3,3.8,16,16.2,27.1,19c4.2,1,7.7-1.4,9.2-5.2
				c6.2-16.5-17.1-31.4-30.4-35.1c-15-4.2-36.9-0.1-44.8,14.7C1184.8,269.8,1186.9,275.2,1191.2,274.7z"/>
			<path class="st7" d="M1213.4,290.4c1.5,0.4,3.2,0.4,4.7,0.5c5.3,0.4,6.8-7.2,2.6-9.7c-1.4-0.8-2.7-1.7-4.2-2.2
				c-1.3-0.4-2.6-0.8-3.9-1.1c-3-0.9-6.4,1.1-7.2,4.1c-0.9,3.2,1.1,6.2,4.1,7.2C1210.9,289.5,1212.2,290,1213.4,290.4z"/>
			<path class="st7" d="M1047.7,259.4c-14.3-9.6-35.2-0.9-48.2,7.3c-15.8,9.9-25.7,24.1-28.8,42.5c-0.8,4.7,5.4,10.1,9.1,5.3
				c8.4-10.8,19-21.7,30.7-29c11.5-7.1,26.4-7.1,37.1-15C1051.7,267.6,1052,262.3,1047.7,259.4z"/>
			<path class="st7" d="M1137.6,294.5c-17.5-33.9-82.9-5.8-78.3,29.4c0.7,5.1,5.9,7.6,10,4.1c11-9.3,20.3-21.4,35.7-23.3
				c9.6-1.1,11.8,4.4,19.7,6.4c3.9,1,8.3,0.1,11-2.9C1139.4,304.3,1140,299.1,1137.6,294.5z"/>
			<path class="st7" d="M986.9,413.5c3.6-2.1,11.9,0.2,15.7,1.5c5.4,2,9.5,6,15.7,5.6c3.6-0.3,6.2-2.7,6.4-6.4
				c0.6-12.3-15.3-17.8-25.3-18.4c-8.4-0.5-25.1,4.5-18.9,16C981.6,414,984.7,414.8,986.9,413.5z"/>
			<path class="st7" d="M1133.5,462.1c-1.7,3.2-0.4,7.8,3.5,8.7c6,1.3,12,0,18.1,1c6.3,1,11.8,3.9,18.3,1.9c2.4-0.8,5.2-3.4,4.8-6.3
				C1175.7,448.3,1141.7,446.2,1133.5,462.1z"/>
			<path class="st7" d="M1074.3,505.4c-4.2-2.9-9.8,1.9-8.4,6.5c1.5,5.1,5.7,11.1,10.9,12.8c3.3,1.1,6.6-1.8,6.6-5
				C1083.3,514.1,1078.6,508.3,1074.3,505.4z"/>
			<path class="st7" d="M1046,551.1c0.1-1.7-0.3-3.4-1.4-4.6c1.9-2.7,3.2-5.7,3.7-9c1.9-11.9-8.6-27-21.8-21.6
				c-3,1.3-5.5,4.8-3.3,8.1c1,1.5,4.4,5.1,4.6,6.8c0.6,5.2-2.9,4.7-5.9,5.2c-5.8,1-10.2,0.7-14.5,5.4c-4.6,5-5.3,10.2-13.8,5.4
				c-6.2-3.5-8.1-10.3-12.2-15.7c-3.2-4.3-9.1-3.7-11.1,1.5c-1.2,3.2-1.4,6.4-0.9,9.5c-6.6,3.1-10.1,13.7-4.4,20.5
				c12.9,15.3,32.5,25.6,52.9,24.3c16-1,36.6-12.8,31-31.6C1048.4,553.6,1047.4,552.2,1046,551.1z"/>
			<path class="st7" d="M1264.2,473.9c-5.9-4-14-3.9-20.4-1.1c-3.1,1.4-5.6,3-7.1,6.2c-1.3,2.9-1.1,6.4,1.8,8.2
				c3.3,2.1,7.1,1,10.7,0.7c3.7-0.4,7.4,0.3,11.1,0.5C1268.6,489,1270.1,477.9,1264.2,473.9z"/>
			<path class="st7" d="M1322.2,549.6c4.7-6.5,6.8-12.9,4.1-20.9c-2.4-7.3-7.7-14.4-14.3-18.5c-11.5-7.1-30.7-7-38.9,4.9
				c-2.5,3.5,0.9,7.6,4.5,7.9c8.1,0.7,15.2-0.2,21.7,5.6c2.8,2.5,4.7,5.2,6.2,8.6c1.7,3.8,4.4,7.2,5.8,11
				C1313.2,553.1,1319.1,553.9,1322.2,549.6z"/>
			<path class="st7" d="M1393.2,615.4c3.8,2.8,10.1,3.4,12.8-1.2c2.7-4.7-0.7-9.5-4.6-12c-3.2-2.1-6.6-3.5-10.5-3.9
				c-5-0.5-7.3,5.6-5.3,9.3c0.9,1.8,1.9,2.8,3.3,4.4C1390.2,613.3,1391.7,614.3,1393.2,615.4z"/>
			<path class="st7" d="M1328.7,681.9c14.6,19.8,33.8,40.7,60.9,37c10.9-1.5,21.2-7.6,27-17.1c2.8-4.6,5-10.3,4.8-15.8
				c-0.3-7.6-4.5-10.7-7.8-17c-0.7-1.4-2-2.2-3.4-2.5c-3.3-13.3-16.4-29.5-29.3-19.6c-2.3,1.8-4.6,5-3.3,8.1
				c2.3,5.7,10,8.7,11.2,14.2c1,4.5-2,9.6-6.8,9.8c-5,0.2-6.9-4.4-9.5-7.6c-10.6-13.2-29.5-13-25.7-35c0.9-5-4.9-9.2-8.9-5.2
				c-9.7,9.6-11.2,23.8-5.2,35C1327.2,669.1,1323.9,675.4,1328.7,681.9z"/>
			<path class="st7" d="M1353.7,485.3c-5,3.5-3.3,11.3,3.1,11.6c5,0.3,11-0.9,15.9-0.1c11,1.8,7.8,5.1,8.3,12.9
				c0.5,6.4,2.1,11.3,6.9,15.8c5.2,4.9,11.9,6.7,16,13c4.2,6.4,3.5,14.5,5.8,21.6c1.6,4.9,7.5,6.6,11.3,3c3.7-3.5,5.5-7.7,6.3-12.3
				c0.9-0.6,1.7-1.5,2.2-2.8c4.9-13.1,5.3-24.5-1.1-37.1c-5.6-11-14.3-27.4-27.5-28.5c-2.1-0.2-4.2,0.7-5.9,2.1
				c-1.5-1.3-3.1-2.5-4.8-3.4C1378.4,474.8,1364.3,477.9,1353.7,485.3z"/>
			<path class="st7" d="M1260.1,411.4c-0.5,5.4,6.9,7.7,10.4,4.3c10.2-10.1,25.9-6.5,35.4,0.9c5.8,4.5,10.3,9.6,17.5,12
				c9,2.9,18.1,0.7,26.7,5c8.5,4.3,10.6,9,20.1,10.2c3.3,0.4,6.2-2.6,7.1-5.4c1.3-4.1,1.2-7.8,0-11.1c0.8-1,1.3-2.2,1.2-3.8
				c-2.2-39.9-49-54.4-82.9-46.1c-4.3,1.1-6.9,3.7-8,6.8C1273.9,385.9,1261.7,395.3,1260.1,411.4z"/>
			<path class="st7" d="M1255.4,359.1c1.3-2,1.1-4.7,0-6.7c-5.1-9.8-20-7.1-28.2-3.9c-9.2,3.6-19.5,9.5-20.1,20.5
				c-0.2,3.3,2.9,5.9,5.9,5.9c7.9,0.2,14.5-5.1,21.9-7.1C1242.2,365.8,1250.9,365.8,1255.4,359.1z"/>
			<path class="st7" d="M1136.3,359.5c-0.1,2.8,2,5.3,4.6,6.1c5.9,1.7,11.4-1.2,17.1-2.6c6.8-1.6,12.9-2.1,19.8-0.7
				c5.8,1.2,12.1,4,17.4-0.1c3.8-2.9,4.7-7.3,2.8-11.6C1189.6,330.5,1136.6,336.4,1136.3,359.5z"/>
			<path class="st7" d="M1331.6,324.2c0,0.2,0.1,0.5,0.1,0.7C1331.6,324.1,1331.5,324,1331.6,324.2z"/>
			<path class="st7" d="M1301.3,318c0.2,0.3,0.3,0.5,0.5,0.8c1.4,3.2,3.7,6,6,9c0.2,0.3,0.5,0.6,0.5,0.7c0.6,0.9,1.3,1.7,1.9,2.5
				c1.1,1.4,2.5,2.8,4.1,3.7c0.9,0.4,1.8,0.8,2.7,1.2c-1.2-0.4-1.3-0.4-0.1,0.1c6.7,3.3,14.3-0.8,14.6-8.4c0-0.7-0.1-3-0.1-3.5
				c-0.3-2.1-0.8-4.2-1.9-6.1c-1.7-2.9-4.6-5.4-7.3-7.3c-3.9-2.8-9.7-4.8-14.6-4c-1,0-2,0-3.1,0c-5-0.2-8.3,6.9-4.3,10.3
				C1300.7,317.4,1301,317.8,1301.3,318z"/>
			<path class="st7" d="M1308.4,328.6c-0.1-0.1-0.2-0.3-0.3-0.4C1308.4,328.6,1308.5,328.6,1308.4,328.6z"/>
			<path class="st7" d="M1529.6,851.5c-5.5-6-5.7-11.2-5.8-18.8c-0.1-5.4-7-8.7-11-4.5c-14.5,15.1,4.9,45,23.5,45.2
				c3.3,0,6.5-3.5,5.3-6.9C1539.3,860.1,1533.9,856.3,1529.6,851.5z"/>
			<path class="st7" d="M1619.3,835.8c-1.2-8.3-4.6-15.4-12.7-18.7c-3-1.2-6.7,1.3-7.5,4.2c-1.4,5.7-0.1,11,0,16.7
				c0.1,5.8-0.5,12.1,2.7,17.3c2.1,3.3,5.9,4.1,9.4,2.5C1619.3,854,1620.4,843.7,1619.3,835.8z"/>
			<path class="st7" d="M1610.6,790.9c2.3-8.1-4-16.9-10.1-21.7c-7.3-5.8-16.3-7.3-25.2-4.6c-7.1,2.2-5.5,12.3,1.7,12.7
				c8.2,0.4,13.8,5,16.9,12.2c1.5,3.4,3.4,6.8,7.3,7.6C1605.8,798,1609.4,795,1610.6,790.9z"/>
			<path class="st7" d="M1431.4,1332.2c-4.4,11.9-11.3,18.3-24.5,14.3c-8.5-2.6-11.6-9.1-17.7-14.4c-8.2-7.2-32.5-5.4-21.1-21.6
				c3.2-4.5-2.9-9.8-7.3-7.3c-8,4.6-12.3,12.8-10.9,21.2c-3.5-0.6-7.4,2.8-6.7,7.1c0.3,1.9,0.8,3.6,1.4,5.1c-5.1,2.8-8.2,8.9-4,14.7
				c0.5,0.7,1.1,1.5,1.7,2.2c0,0,0,0,0,0c0,0,0,0,0,0c5.8,7.2,15.1,14.8,24.9,18.8c20,11.2,42.4,14,62.8-4.2
				c2.6-2.3,3.1-5.3,2.2-8.1c10.4-6.2,17.1-18.1,10-29.5C1439.5,1326.2,1433.2,1327.5,1431.4,1332.2z"/>
			<path class="st7" d="M1461.3,1258.2c2.1-4.7,0.8-11.4-5.3-13.9c-14.6-6.1-29.5-10.2-44.8-13.9c-3.9-0.9-6.8,2.2-7,5.4
				c-0.5-0.2-1-0.3-1.6-0.4c-7.9-1.6-14.4,0.7-19.9,6.4c-3.4,3.5-0.1,10.5,5.1,8.7c11.6-4.1,25.8,9.9,38.4,11.5
				c18.5,2.3,27.5,8.5,39.9,22c4.3,4.6,13.7-0.2,11.1-6.5C1473.7,1268.9,1468.1,1262.8,1461.3,1258.2z"/>
			<path class="st7" d="M1280.1,1540.6c-6.1,1.8-5.1,11.3,1.5,11.2c3.2-0.1,6.2,1,8.8,2.7c2.9,1.8,4.6,4.3,7.2,6.5
				c5.4,4.5,16,0.4,13.1-7.6C1306.4,1541.1,1291.6,1537.3,1280.1,1540.6z"/>
			<path class="st7" d="M1327,1562.5c-4.9-1.9-8.2,5.1-4.9,8.5c3,3.1,3.5,10.6,3.5,14.6c0.1,5-1.1,13,5.7,14.2
				c3.8,0.7,7-0.5,9.1-3.7c4.6-6.8,5.3-14.5,2-22C1339.3,1567,1333.7,1565.1,1327,1562.5z"/>
			<path class="st7" d="M1280.6,1614.3c-5.9-3.8-11-12.4-6.3-19.1c3.9-5.6-4.4-11.1-9-7c-0.6,0.6-1.1,1.2-1.6,1.7
				c0-5.2-6.7-6.8-10-3.6c-4.2-3-10.9-2.7-13.8,2.5c-4.2,7.6-11.6,20.6-5.4,28.8c1.9,2.5,4.6,3.8,7.3,3.4c0.2,0.2,0.3,0.5,0.4,0.7
				c4.9,6.6,15.6,14,24.1,13.2c3.3-0.3,6.2-1.9,8.2-4.3c7.9,4.7,17.5,7.1,25.2,3.3c2.4-1.2,3.7-5.2,2-7.5
				C1296.3,1619.3,1287.8,1619,1280.6,1614.3z"/>
			<path class="st7" d="M581.9,1253.1c-3.6,0.3-7.1,2.7-9.3,5.8c-8-2.4-17-0.8-23.3,5.6c-3.5,3.6-1.3,11.7,4.5,11
				c5.7-0.7,12.9-1.7,15.9,4.6c2.8,5.8-1.1,10.5-6.8,11.4c-4.8,0.7-10.5-0.9-15.1-2c-7.7-1.8-9.6-4.7-14.2-10.8
				c-2.6-3.5-7.9-4.3-10.4-0.1c-2.4-0.7-5.3,0.3-6.3,3.6c-0.7,2.3-1.2,4.5-1.5,6.7c-4.8,0.9-9.3,4.9-10,10.8
				c-5.6,50,70.5,44.4,97.6,28.4c15.7-9.3,25-26.3,19.5-44.4C617.1,1265.9,601.1,1251.2,581.9,1253.1z"/>
			<path class="st7" d="M524.6,1243.4c3.7-5.3,13.9-9.8,19.8-12.1c6.3-2.4,15.2-2,19.8-7.5c2.6-3.1,2.4-6.5,0-9.6
				c-6.6-8.4-21.4-3.5-29.3,0.5c-4.7,2.4-8.9,5.7-12.2,9.8c-3.5,4.3-4.5,8.9-6.9,13.7C512.9,1244.2,520.9,1248.8,524.6,1243.4z"/>
			<path class="st7" d="M393.9,806.1c-11.6,6-16.7,19.2-16.9,31.8c0,3,1.7,6.2,4.4,7.6c3,1.6,5.9,1.9,8.9,0
				c4.3-2.8,4.1-6.8,4.5-11.3c0.7-7.1,3.9-13.9,6.7-20.4C403.7,808.7,399.2,803.4,393.9,806.1z"/>
			<path class="st7" d="M386,753.3c-6,5.4-7.3,12.6-6.6,20.3c0.6,6.8,9.7,6.7,10.5,0c0.4-3.3,4-6.8,6.5-8.7
				c3.6-2.6,7.9-3.5,11.4-6.3c2.2-1.7,2.1-6,0-7.8C401.1,745.2,392,747.8,386,753.3z"/>
			<path class="st7" d="M453.1,747.5c-3.6-0.2-5.3,3-4.9,5.9c-5.6,1.1-10.9,4.2-14.8,8.6c-4.1,4.6,1,10.3,6.2,8.1
				c5-2.1,15.6-6.1,16.5,2.2c0.5,4.2-0.4,7.2,2.2,11c2.5,3.7,4.6,4.8,0.6,9.1c-4,4.4-10.1,3.5-15.5,4.7c-3.9,0.9-5.7,6.7-2.5,9.4
				c6.4,5.4,14.8,4.8,21.8,1c2,3.7,6.1,6.1,11.5,4.8c17.4-4.2,22.9-25.4,17.5-40.7C486.1,755,469.4,748.3,453.1,747.5z"/>
		</g>
		<g class="st4">
			<path class="st8" d="M1580.8,838.6c-3.6-4.6-9.5-4.9-14.9-4.1c-5.1,0.8-9,3.5-12.4,7.3c-3.8,4.3,0.9,10.5,6.1,7.9
				c5.9-3.1,12.6-0.8,18.8-1.8C1583,847.3,1583,841.4,1580.8,838.6z"/>
			<path class="st8" d="M1571.9,826.4c3.5,1.3,6.6-2,6.8-5.2c0.3-4.5-2.3-8.9-3.7-13.1c-1.4-4.4-1.8-9-3.3-13.3
				c-1.4-3.9-7.5-5.7-9.6-1.3C1557.4,803.5,1560.5,822.2,1571.9,826.4z"/>
			<path class="st8" d="M1464.2,1291.5c-17.8,5.7-29.7-9.1-45-15.2c-15.1-5.9-37.3-1.7-48.2-14.5c-2.8-3.3-9.6-0.8-9.1,3.8
				c0.3,2.2,0.7,4.2,1.2,6c-1.9,1.1-3.3,3.2-2.9,5.4c-0.1,5.2,3.8,11.1,7.8,13.9c1.5,1.1,3.1,1.9,4.7,2.5c-0.6,2.1,0.2,4.4,3.1,5.1
				c22,5.2,49.3,4.1,67,20.5c4.8,4.5,11.3-1.5,8.4-6.6c7.9,0.2,14.9-3.4,19.4-14.5C1472.1,1294.2,1467.6,1290.3,1464.2,1291.5z"/>
			<path class="st8" d="M1316.9,1595c-19.8,0.8-24.8-42.6-47.6-30.7c-4,2.1-3.1,7.2,0,9.4c5.8,4.3,10.5,5.8,14.9,12.2
				c3.2,4.7,6,9.8,10.2,13.7c6.9,6.5,16.5,9.9,25,4.6C1323.3,1601.7,1322,1594.8,1316.9,1595z"/>
			<path class="st8" d="M621.8,1236.7c-27-9-65.3-10.7-82.8,16.5c-2.3,3.6,1.6,9.5,6,7.7c14.8-6,27.9-13.2,44.5-12.5
				c12.3,0.5,25.8,9.9,35.2-1.3C627.7,1243.5,626.5,1238.3,621.8,1236.7z"/>
			<path class="st8" d="M419.7,783.9c-3.4-0.9-7.6,1.8-7.3,5.6c0.4,6,4.2,10.7,5.4,16.5c1.4,6.8-0.1,14.4-1.4,21.1
				c-1,5.2,4.7,8.7,8.8,5.1c7.9-7.1,10.4-16.7,8.8-27.1C432.6,796.8,428.6,786.3,419.7,783.9z"/>
			<path class="st8" d="M413.8,774.6c-1-2.5-2.2-3.9-4.3-5.5c-1.5-1.2-4.1-0.7-5.5,0.4c-1.6,1.3-2.3,3.2-1.8,5.2
				c0.5,1.9,1.4,3.7,2.8,5c1.7,1.6,4.3,2,6.4,0.8C413.2,779.5,414.6,776.8,413.8,774.6z"/>
			<path class="st8" d="M668,635.8c-21.6-1.4-24.4-36-47.7-34.4c-3.5,0.2-6.8,4.3-4.4,7.7c3.6,5.2,7.9,9.7,10.9,15.3
				c3.2,6.1,5.9,12.2,10.2,17.8c7.5,9.9,21.1,18.7,33.8,13.5C681.1,651.5,680,636.6,668,635.8z"/>
			<path class="st8" d="M961.5,509.5c-9.5,3.9-17.2,8.5-26.2,13.4c-13.6,7.4-28.5,8.5-43.7,9.3c-24.7,1.2-47.8,4.7-71.5,11.9
				c-24,7.3-47.5,16.8-72.2,21.4c-27.1,5.1-52.9-0.2-79.9-3.3c-5.6-0.7-8.9,7.8-4.7,11.3c7.3,6,15,10.4,23,13.5
				c-1.6,5.9,0.6,12.6,8.3,14.3c47.5,10.2,88.3-11.5,131.7-27.3c23.8-8.7,45.9-10.8,71-11c18.8-0.1,36.3-2.2,50.2-15.9
				c1-1,1.5-2.4,1.6-3.8c9.4-5.9,16.8-14.2,20.1-26C970.4,513.1,966.1,507.7,961.5,509.5z"/>
			<path class="st8" d="M573.4,569.5c-5.1,4.3-8.1,9.8-10,16.1c-1.8,6,5,10.5,10.1,7.8c4.5-2.4,8.6-4.8,12.7-8
				c3.6-2.8,7.1-4.8,9.4-8.4c1-1.3,2-2.5,2.8-3.9c3-5.1-0.9-10.8-6.4-11.2C584.5,561.4,579.2,564.7,573.4,569.5z"/>
			<path class="st8" d="M616.4,554c-1.5,0.2-3,0.5-4.5,0.8c-6.2,1.4-3.4,11.4,2.6,9.5c1.5-0.5,2.9-0.9,4.3-1.6
				C622.9,560.9,621,553.6,616.4,554z"/>
			<path class="st8" d="M735.9,502c2.1-10.2-3.8-19-12.2-24.6c-8.8-5.8-23.5-6.3-29.1,4c-2.2,4.1,0,8,3.9,9.6
				c5.4,2.3,11.5,1.2,16.9,3.5c4.5,1.9,7.5,6.5,10.6,10C728.9,507.8,735,506.2,735.9,502z"/>
			<path class="st8" d="M694.3,551.5c2-1.1,3.5-3.5,3.3-5.8c-0.4-6.5-4.9-10.7-8.7-15.6c-3.7-4.8-5.4-10.8-9.1-15.7
				c-3.2-4.3-9.6-5.1-12.7,0c-5,8.5-2.5,19,2.7,26.8C675.1,548.8,684.9,556.8,694.3,551.5z"/>
			<path class="st8" d="M713.2,532.4c-3.9,0.9-7.2,1.5-10.9,3.3c-3.8,1.8-3.4,6.6-1.2,9.3c8,9.9,26.3,5.2,30.4-6.2
				c1.5-4.3-2.4-8.4-6.5-8.5C721.1,530.2,717.1,531.5,713.2,532.4z"/>
			<path class="st8" d="M804.4,526.1c6.7,11.3,27.5,10.7,34.3-0.4c2.3-3.8-1.5-8.2-5.5-7.2c-3.9,0.9-7.2,2.5-11.3,2.2
				c-3.8-0.3-7.4-1.9-11.2-2.7C806,517.1,801.8,521.8,804.4,526.1z"/>
			<path class="st8" d="M891.1,429.4c-4.5,1.6-6,5.8-4.1,10.1c2.6,5.7,8.8,8,12.4,13c4.2,6,2.1,13,4.6,19.4
				c1.8,4.4,6.4,5.8,10.2,2.7C929.2,462.1,911.1,422.2,891.1,429.4z"/>
			<path class="st8" d="M561.2,485.7c7-5.4,7.2-13.9,7.7-22c0.9-12.6,12.8-12.4,20.2-20.2c5.2-5.5,6.9-13.5,2.8-19.9
				c-2.6-3.9-8.3-3.1-9.8,1.3c-3.7,11-17,11.8-24,20.2c-3.1,3.7-4.6,7.9-5.2,12.7c-0.6,4.6,2.4,19.4-5.5,19
				c-5.7-0.3-6.3,6.9-2.6,9.6C549.8,490.1,556.3,489.5,561.2,485.7z"/>
			<path class="st8" d="M733.5,339.1c5.9-6.9,10.2-15,14.1-23.2c3.6-7.6,9-17.4,3.4-25.2c-1.8-2.5-4.2-3.6-7.3-3
				c-11.3,2.3-15.3,19.3-20.3,28.2c-6.2,11-14.1,20.1-27.7,19.7c-4.9-0.1-6.6,5.8-3.8,9C703.5,358.4,723.4,350.9,733.5,339.1z"/>
			<path class="st8" d="M825.6,391.3c32.6,12.5,75.1-18,90.1-45.9c19.6-36.5-13.3-55.4-37.7-75.4c-4.1-3.3-10.6-1.4-10.7,4.4
				c-0.2,11.1,7.6,19.2,15.1,26.9c-1.8,1.3-3,3.7-2.2,5.8c5.8,15,0.5,24-6,37.4c-1.9,3.9-2.2,8.4-1.1,12.1
				c-15.1,9.1-34,13.3-49.2,21.7C818.2,381.6,820.2,389.2,825.6,391.3z"/>
			<path class="st8" d="M821.6,403.7c1.4-2.5,1.2-6.2-1.1-8.2c-3.6-3.2-7.9-4-12.2-4.7c-4.4-0.8-9.2-2.6-13.6-1.2
				c-2.7,0.8-5.4,3.7-5.1,6.7C791.1,409.8,814.7,416.4,821.6,403.7z"/>
			<path class="st8" d="M748.5,389.1c-3.4-2.9-10.6-2.5-11.4,3c-1.7,12.1,0.6,24.8-4.5,36.4c-4.4,10.2-13.8,17-18.9,26.8
				c-2.6,4.9,0.7,9.8,5.9,10.3C753.8,469,772.9,409.9,748.5,389.1z"/>
			<path class="st8" d="M593.8,480.6c9,0.1,17.7-2.2,26.6-2.2c9-0.1,17.5,3.6,26.5,3c5.6-0.4,7.5-6.2,4.3-10.4
				c-12.7-16.3-48-14.3-61.3,0C586.6,474.6,588.8,480.6,593.8,480.6z"/>
			<path class="st8" d="M965.3,397.8c0.4-4-4.2-6.8-7.7-5.9c-28.2,7.6-5.7,56.3,17.3,46.1c2.5-1.1,4.3-4.6,4.1-7.2
				c-0.4-7.6-6.3-10.8-9.9-16.8C966.7,409.9,964.7,402.7,965.3,397.8z"/>
			<path class="st8" d="M1010.1,448c11,3.6,24.8-0.9,32.4-9.5c7.8-8.9,10.6-23.5-0.8-30.7c-4.3-2.7-9.2,0.9-9.5,5.5
				c-0.4,6-0.5,11.6-5.4,15.8c-5.1,4.4-12.3,5.4-18,8.8C1004.5,440.4,1005.7,446.6,1010.1,448z"/>
			<path class="st8" d="M1122.9,497.5c6.7,0.4,15.6-2.1,14.3-10.5c-0.9-5.7-8.7-9.9-12.4-13.7c-3.6-3.7-4-7.6-5.1-11.8
				c0-0.4,0.2-0.7,0.2-1.1c0.1-2.1-1.3-4.8-3.2-5.6c-6.7-2.9-13.9,0-17.5,6.7c-4.3,8.1-0.7,17.3,4.5,24
				C1108.2,491.5,1115,497,1122.9,497.5z"/>
			<path class="st8" d="M1198.6,496c6.1-3.6,10.9-9.5,13.3-16.1c4.4-12.3-1.9-32.5-18.1-28.6c-3.7,0.9-5.6,4.3-5.9,7.7
				c-0.5,5.9,3.4,11.1-0.7,16.2c-4.4,5.5-15.7,11.6-9.1,19.9C1182.9,500.9,1192.8,499.4,1198.6,496z"/>
			<path class="st8" d="M1055.5,519.1c-4.2,0-6.7,4.2-5.8,7.7c0,0,0,0-0.1,0c0,0.2,0.1,0.3,0.2,0.4c0,0.1,0.1,0.2,0.1,0.3
				c1.6,4.8,5.2,8.4,5.8,13.7c0.7,5.8-1.9,11.5-0.7,17.2c0.7,3.3,4.3,4.7,7.3,4.2c10.6-2,13.4-16.2,11.4-25.1
				C1071.8,529.2,1064.9,519.1,1055.5,519.1z"/>
			<path class="st8" d="M1342.1,606.8c-19.5-14.5-44.3-16.3-67.4-22.5c-24.9-6.7-49.6-14.3-73.9-22.8c-22.8-8-48.9-15.3-67.1-31.9
				c-13.1-11.8-21.3-26.9-40.8-26.2c-5.6,0.2-10,8-5,12.1c2.8,2.3,5.3,4.7,7.8,7.3c-3.1,1.5-5.3,4.4-4.8,8.2
				c3.2,25.4,28.4,40.7,51.8,45.2c5.8,1.1,10.3-1.5,12.9-5.4c12.8,5.4,26.1,9.8,38.8,14.3c24.3,8.6,49,16.2,73.9,22.9
				c23.9,6.4,48.1,15.6,72.6,9.2C1345.8,615.8,1345.8,609.6,1342.1,606.8z"/>
			<path class="st8" d="M1338.3,556.3c-10.6,2.7-21,9.1-32.2,8c-10.4-1-18.3-8.3-28.5-9.3c-3.2-0.3-6.2,3-6.1,6.1
				c0.5,16.7,20.7,24.7,35,25.7c16.7,1.1,34.7-5.5,39.5-22.7C1347.4,559.3,1342.9,555.1,1338.3,556.3z"/>
			<path class="st8" d="M1266.7,531.8c-2.5-1.1-5.2-1.1-7.3,0.9c-2,2-2.1,4.9-0.9,7.3c1.6,3.2,4.4,6,7.4,7.9c2.4,1.5,6,1.1,7.9-1
				c1.9-2,2.7-5.5,1-8C1272.8,535.9,1270.1,533.2,1266.7,531.8z"/>
			<path class="st8" d="M1243,470.6c4.1-0.8,8-2.6,12.1-3.7c4.6-1.2,8.7-2.5,11.4-6.7c1.6-2.3,1-6.1-1-8c-4.4-4.1-10.3-3.8-15.8-2.1
				c-5,1.5-10.5,3.8-14.2,7.6C1229.9,463.6,1235.6,472,1243,470.6z"/>
			<path class="st8" d="M1278.7,492c-8.2-3.3-16.8,3.6-20.9,10.1c-3.1,4.9,3.3,11.9,8.3,8.3c4.8-3.5,10.8-5.2,15-9.4
				C1284.2,497.9,1282.4,493.5,1278.7,492z"/>
			<path class="st8" d="M1366.6,647.8c6.1,0.2,10.1-3.8,15-6.8c4.7-2.9,9.6-6,12-11.1c1.6-3.4,1.2-8.3-2.7-10.1
				c-6.7-3.3-14.3-2-20.4,2.3c-5.8,4-12.8,9.7-12.2,17.5C1358.7,644.1,1361.8,647.7,1366.6,647.8z"/>
			<path class="st8" d="M1364.4,600.5c0.8,1.8,3.1,2.7,4.9,2.8c8.8,0.5,15.9-8.4,22.4-13c6.1-4.3,17.4-13,9.4-21
				c-7.8-7.8-20.6,1.3-27,6.7C1367.3,581.9,1360.5,591.2,1364.4,600.5z"/>
			<path class="st8" d="M1379.3,461c0.6-3.6-0.5-6.4-3.5-8.5c-4.4-3.1-10.1-0.7-14.5,1.3c-3.9,1.8-6.9,4.3-10.3,6.9
				c-2.5,1.9-2.6,6.2-1.1,8.7c1.8,3,4.9,3.8,8.2,3.3c4-0.6,7.5-1.2,11.3-2.8C1373.5,468.1,1378.5,465.9,1379.3,461z"/>
			<path class="st8" d="M1257.3,407c0.2-4.1,3-9,4.2-13c0.7-2.3,1.9-4.5,2.6-6.7c0.8-3,0.1-6-0.5-9c-1.4-6.6-9.1-8.4-14.4-5.8
				c-7.5,3.6-9.2,10.9-10.1,18.5c-0.8,7.2,1.9,11.6,4.6,17.9C1246.6,415.8,1256.9,415.3,1257.3,407z"/>
			<path class="st8" d="M1136.5,332.5c1.1-2.9-0.7-6.3-3.2-7.8c-15.2-9.2-30.7,7.8-34.9,21.4c-5.6,18,0.9,34.2,16,44.4
				c6.2,4.2,16.2-2.9,13.2-10.2c-3.3-8.3-9.3-18.8-5.7-27.8C1125.1,344.7,1133.4,340.7,1136.5,332.5z"/>
			<path class="st8" d="M1073.2,273.8c-13-5.9-26,3.4-33.4,14c-3.4,4.9-6.1,10.8-6,16.9c0.1,5.5,3.6,13,10.2,11.6
				c7.6-1.6,10.9-10.1,15.7-15.3c5.3-5.6,12.6-9.5,16.4-16.3C1078,281.2,1077.2,275.6,1073.2,273.8z"/>
			<path class="st8" d="M961.1,315.4c1.6-8.5,0.7-17.1,3-25.5c2.1-7.4,4.7-15.3,3-23.1c-0.8-3.7-4.7-5.2-8.1-4.6
				c-21.3,4.1-25.1,40-16.6,55.6C946.4,325.2,959.5,324.1,961.1,315.4z"/>
			<path class="st8" d="M1042.6,246.8c17.8,1.5,34.4,1.3,52.2,4c20.6,3.2,51.1-8.5,46.6-33.7c-1.1-5.7-8.2-7.6-12.7-5.1
				c-7.7,4.1-11.7,11.8-20.2,14.2c-10.5,3-22.5-2.8-33.5-3c-19.2-0.4-38.1,4.3-57.2-0.5c-5.7-1.5-9,5.2-5.5,9.4
				C1020.4,241.7,1030.1,245.8,1042.6,246.8z"/>
			<path class="st8" d="M1122.9,263.6c-5.1,2.7-3.3,9.7,1.5,11.4c16.2,5.7,20.6,23.1,32.1,34.3c9.3,8.9,21.2,14.7,33.4,18.4
				c22.1,6.7,57.2,12.6,75.4-4.9c3-2.9,4-7.3,3-11.2c-0.3-1.1-0.6-2.3-0.9-3.4c-1.1-4.3-5.3-5.8-9.2-5.2c-6.4,0.9-11.2,4.6-17.5,5.7
				c-6.8,1.1-14.1,0.1-20.9-0.5c-20.2-1.9-39-6.5-52.1-22.9C1156.2,271,1143.1,253,1122.9,263.6z"/>
			<path class="st8" d="M1286.3,353.4c4.1,3.6,8.8,6.9,14,8.7c5,1.7,12.8,1.8,17.6-1c11.8-7-1.6-17.4-8.3-21.2
				c-4.4-2.5-8-4.8-11.1-9c-3.3-4.6-5.3-9.5-9.3-13.6c-5.1-5.2-12.7-2.1-15,4C1269.8,332.7,1277.8,345.8,1286.3,353.4z"/>
			<path class="st8" d="M790.3,460c2.8-4.8,6.7-8.4,10.7-12.1c3.3-3.1-0.1-9.5-4.6-7.8c-7.4,2.7-12.5,9-14.9,16.3
				C779.8,461.5,787.6,464.6,790.3,460z"/>
			<path class="st8" d="M812.4,440.3c1.4-0.5,2.8-1.1,4-1.9c4.5-3,1.6-9.5-3.6-8.6c-1.1,0.2-2,0.5-3,1c-2.5,1-4.2,3.3-3.5,6.1
				C807,439.2,809.9,441.2,812.4,440.3z"/>
			<path class="st8" d="M1063.8,483.1c3.5,1.1,6.7-1.8,6.9-5.2c0.4-10.2-11.4-14.2-19.9-13.5c-6.1,0.6-12.2,3.1-16.9,7
				c-3,2.5-6.9,3.5-10.8,3.3c0,0,0,0-0.1,0c-9.6-0.5-19.3,2.4-26.5,8.9c-3.6,3.3,0.2,9.7,4.8,8.2c7.6-2.4,14.6-4.5,22.7-3
				c6.6,1.3,11.8,5.5,18.5,6.3c4.7,0.6,6.2-5,4.8-8.3c0,0,0,0,0-0.1c-2.1-4.6,1.9-9.7,6.8-8.1
				C1057.8,479.9,1060.9,482.2,1063.8,483.1z"/>
			<path class="st8" d="M1017.3,351.8c5,0.7,8.8-3.6,6.5-8.4c-3.6-7.5-13.4-9.9-21.2-9.6c-7.9,0.4-14.4,3.6-20.1,8.9
				c-4.8,4.4,1.5,12.9,7.1,9.2c3.8-2.5,8.4-4.3,13-4.2C1007.9,347.9,1012.2,351.1,1017.3,351.8z"/>
			<path class="st8" d="M1190.3,412.9c4.5-2.9,10.6-2.3,14.5-6.1c2.2-2.2,1.8-5.4,0-7.6c-5.9-7.3-19.4-3.1-25.3,1.9
				c-5.8,5-11.9,17.8-4.6,24c2.2,1.9,5.7,2.4,7.8,0C1186.2,421.4,1185.7,415.9,1190.3,412.9z"/>
		</g>
		<g class="st4">
			<path class="st9" d="M1121.2,709.1c26-3.6,48.5-14.1,75.1-5.3c11.8,3.9,22.4,10.4,31.3,19c7.1,6.9,10.9,12.2,20.3,15.4
				c4.9,1.7,9.5-2.7,9.7-7.4c0.4-10.3-5.1-19.6-13.3-27.4c0.1-1.1-0.2-2.3-0.9-3.5c-15.9-23.9-38.9-35.1-67.3-39.6
				c-19.5-3.1-56.4-5-60.6,21.2c-0.6,4,1.3,8.9,4.8,11c-2.2,2.2-4.3,4.5-6.2,7.2C1110.5,704.9,1116.4,709.8,1121.2,709.1z"/>
			<path class="st9" d="M1119.7,810.4c-2.1,1.8-3,4.8-1.4,7.7c11.7,20.8,42.6,24.9,64.3,26.8c20.9,1.8,59.2,2.3,73.4-15.7
				c3.7-4.7,3.3-13.3-3.9-14.7c-3-0.6-5.6-0.7-8-0.6c-0.9-2-2.7-3.7-5-4.3c-21.8-6.1-45.2,5.1-68.3,0.3c-20.4-4.2-35.3-17-52.8-27.2
				c-4.9-2.8-10.4,1.8-9.2,7.1C1110.7,797.9,1114.5,804.7,1119.7,810.4z"/>
			<path class="st9" d="M749.3,731.9c21.7-8.2,41.1-20.5,64.4-24.3c12.4-2,25.6-2,38,0c11.8,1.9,21.6,5.9,33.7,4.7
				c6.5-0.6,9.2-7.3,5.1-12.4c-1.9-2.4-4.2-4.4-6.6-6.2c3.7-2.2,4.4-8.2,0-11.5c-0.8-0.5-1.5-1-2.3-1.5c1.4-5.3-0.8-11.2-8-13.4
				c-22.9-6.9-47.4-6.8-70.8-1.5c-18.5,3.5-36.6,10.9-52.3,21.3c-9.1,6-6,18,1.3,21.8c-4.2,4.5-7.7,9.6-9.9,15.7
				C740.6,728.7,745.2,733.4,749.3,731.9z"/>
			<path class="st9" d="M884.6,787.8c-20.3,9.7-38.1,23.2-60.5,28.2c-22.9,5.1-46.3-4.5-68.1,1.2c-5.3,1.4-6.2,7.6-3,11.4
				c16.7,19.9,54.8,16.1,77.6,11c5-1.1,10-2.5,14.9-4.2c2.8,3,7.2,4,11.5,3.3c7.5-1.2,14.1-4.8,19.9-9.7c5.4-4.5,8.3-10.7,11.6-16.8
				c1-1.9,0.9-3.8,0.2-5.4c2.2-2.8,4.3-5.8,6-9.1C898.3,791.1,891.1,784.7,884.6,787.8z"/>
			<path class="st9" d="M928.7,926.3c-3.5-18.2-26.6-42.9-46.5-30.7c-2.3,1.4-3.7,3.3-4.4,5.5c-4.4,0.5-8.7,1.8-12.8,4.1
				c-0.5,0.3-1,0.6-1.4,1c-11.7-2-23.7-2.3-35.6-1.5c-37.2,2.5-108.7,10.1-121,53.4c-1.8,6.3,4.9,10,10,7.7
				c17.4-7.6,31.4-19.6,49.8-25.5c18.4-5.9,38.4-9.4,57.5-11c19.9-1.7,40.6-0.9,58.7,8.3c14.3,7.2,21.3,21.5,34.6,29.3
				c5.7,3.4,11.4-1.1,12.1-7c0.9-7.6-1.7-14.6-6.2-20.8C927.4,936.3,929.7,931.4,928.7,926.3z"/>
			<path class="st9" d="M1298.7,934.6c-37.8-19.7-78.2-32.4-120.6-37.1c-32.4-3.6-79.6-8.6-104.1,18c-6.2,6.8-3.1,16.8,4,19.9
				c-2.7,5.5,0.9,13.7,7.8,13.1c15.1-1.2,28.9-7.9,43.8-10.8c19.9-3.8,40.7-3.5,60.6,0.8c32.5,7.2,60.4,24.7,82.6,49.3
				c10.6,11.7,27.8-5.6,17.3-17.3c0,0,0,0,0,0c3.4-2.9,4.4-9,2.2-13.3C1303.3,957.1,1310.7,940.8,1298.7,934.6z"/>
			<path class="st9" d="M1183.9,1289.6c-16.1,0-28.3,9.7-43.7-1c-16.4-11.3-12.5-29.9-22.3-44.3c-3.6-5.4-10.6-5.3-14.3,0
				c-8.9,12.8-4.5,29.9,4.4,44.1c-0.5,0.5-0.9,1.1-1.3,1.8c-6.4,12.8,7.8,23.6,16.9,30.7c6.6,5.1,13.5,9.8,20.3,14.7
				c6.5,4.6,13.5,11.5,21.3,13.6c20.8,5.7,28.3-23.5,18.4-38c3.4-3.1,6-7.2,6.9-12.8C1191.4,1294,1188.8,1289.6,1183.9,1289.6z"/>
			<path class="st9" d="M1219.1,1124.4c-4.1-20.3-29.1-31.6-47.6-35.1c-22.6-4.3-45.3,1.7-63.8,15.1c-8.5,6.2-5.7,17.8,0.9,21.9
				c-1,1-2.1,2-3.1,3.1c-4,4.3-0.2,12.4,6,10.3c18.1-5.9,40.9-11,59.6-5.7c23.6,6.8,25.8,23.7,37.3,41.7c3.1,4.8,11.4,5.9,14.2,0
				c6.8-14.2,2.1-28.7-7.3-40.4C1218.8,1132.7,1220,1128.6,1219.1,1124.4z"/>
			<path class="st9" d="M834.6,1145.3c17.7-11.3,35.5-9.4,55.3-8.9c5.6,0.1,8.2-7,4.5-10.8c-0.8-0.8-1.5-1.4-2.3-2.1
				c4.5-5.4,5.1-13.7-3.1-17.3c-24.3-10.7-50.8-20.1-77.2-10.9c-23.7,8.2-37.5,30.2-36.8,54.9c0.2,7.3,5.7,11.2,11.3,11.7
				c0,0.1,0,0.2,0,0.2c-0.2,2.7,1.5,4.4,3.6,5c-0.9,5.6-0.6,11.3,1.5,16.9c1.6,4.2,7,6.5,10.5,2.8
				C814.3,1173.4,818.3,1155.7,834.6,1145.3z"/>
			<path class="st9" d="M895.1,1223.8c0.7-2,1.3-4,1.7-6c1.1-5.8-5.1-12.4-10.9-8.4c-12,8.3-20.4,19.2-31.7,28.2
				c-11.1,8.8-30.3,22.7-45.2,19.8c-5.3-1-9.9,5.3-5.5,9.5c20.1,19.6,52.5,5.2,73.5-15.9c0.9,0.8,2,1.4,3.3,1.7
				c9.1,2.3,16-6.5,18.2-14.4c1-3.6,1.4-7.6-0.3-11C897.3,1225.8,896.3,1224.6,895.1,1223.8z"/>
		</g>
		<g>
			<path class="st10" d="M756.1,804.5c2.3,1.3,5.4,1.5,7.7,0c9-5.7,7.9-16.4,7.5-25.9c-0.4-9.2,0.2-22.6-5.4-30.2
				c-0.1,0.1-0.1,0.3-0.2,0.4c-2.7-4.3-8.9-6.7-13.3-0.4c-5.4,7.8-4.4,21-4.5,30.2C747.8,788,746.9,799.1,756.1,804.5z"/>
			<path class="st10" d="M793,781.7c4.7-4.8,3-12.3,2.4-18.3c-0.3-3.4-2.3-6.3-5.9-6.7c-3.1-0.4-6.9,1.5-7.5,4.9
				c-1.2,6.7-3.7,14.3,1.1,20.1C785.5,784.6,790.5,784.2,793,781.7z"/>
			<path class="st10" d="M880.9,762.8c2.9-4.8,1.6-10.7,0.7-16c-0.5-3-4-4.8-6.7-4.4c-3.1,0.5-5.1,2.9-5.3,6
				c-0.3,4.7-0.9,10.4,2,14.4C874,766,878.7,766.5,880.9,762.8z"/>
			<path class="st10" d="M1133.1,746.6c-0.2-1.3-0.6-2.5-0.9-3.7c-0.8-3.1-4-5-7-4.6c-3.4,0.5-5.2,3.1-5.6,6.3
				c-0.2,1.5-0.5,3.1-0.4,4.7c0.1,0.6,0.2,1.3,0.3,1.9c0.7,1.8,0.9,2.3,0.6,1.4c0.4,1,0.7,2,1.2,2.9c1.1,2.2,3.8,3.2,6.1,2.9
				c2.5-0.3,4.2-2,5.1-4.4c0.3-0.8,0.4-1.6,0.5-2.4C1133.5,750,1133.5,748.5,1133.1,746.6z"/>
			<path class="st10" d="M1248.2,756.2c-2.3-4.9-9-3.8-11.6,0c-3.7,5.4-4.6,11.5-5.4,17.9c-0.9,6.9-1,12.5,1.9,19
				c2.7,5.9,10.8,4.5,13.8,0C1253.4,783.5,1253.1,766.3,1248.2,756.2z"/>
			<path class="st10" d="M1221.8,778.8c1.4-4.3,1.2-9.2,1.4-13.7c0.2-3.3-2.9-6.1-6.1-6.1c-3.4,0-6,2.8-6.1,6.1
				c-0.2,4.5-0.7,9.2,0.3,13.7C1212.6,784.2,1220.3,783.5,1221.8,778.8z"/>
			<path class="st10" d="M796.9,983.4c0,0.2,0,0.3,0,0.5C796.8,983.6,796.9,983.5,796.9,983.4z"/>
			<path class="st10" d="M782.7,998.2c3.3-1.2,6.2-3.4,8.8-5.8c1.1-1,2-2.2,2.9-3.3c0.5-0.7,1.1-1.4,1.5-2.1
				c0.2-0.5,0.5-1.1,0.7-1.7c0.2-1.5,0.3-2.1,0.3-1.9c0.4-3.3-1.8-7.2-5.7-6.9c-2,0.2-3.6,0.4-5.5,1.4c-1.6,0.8-3.1,1.8-4.5,3
				c-2.3,1.9-5,4.4-6.3,7.2c-1.3,2.6-1.3,5.4,0.5,7.7C777,997.8,780.1,999.2,782.7,998.2z"/>
			<path class="st10" d="M809.8,974.6c0,0,0,0.1,0,0.2c0.3-0.2,0.5-0.3,0.7-0.5c0,0-0.1,0-0.1,0.1c0.1-0.1,0.2-0.2,0.3-0.2
				c2.6-1.7,4.8-3.8,6.1-6.6c2-4.2-1.3-8.6-5.9-7.7c-3.5,0.7-6.3,2.6-8.8,5.1c-2.4,2.4-2.4,6.4,0,8.8
				C804.4,976,807.3,976,809.8,974.6z"/>
			<path class="st10" d="M814.7,1001.9c10-5.5,18.8-11.8,27.8-19c8.5-6.9,18.2-13.8,22.9-24c1.9-4.2-1.3-9.4-6.2-8
				c-10.3,2.8-18.3,10.4-26.2,17.3c-9.1,7.9-17.3,16-24.7,25.5C804.8,998.2,809.1,1005,814.7,1001.9z"/>
			<path class="st10" d="M1166.8,973.7c-3.8-1.5-8.8,0.4-12.1,2.4c-3.4,2-7.2,4.6-9.2,8c-2.7,4.6,0.7,11.7,6.5,11.3
				c7.8-0.6,18.8-7.3,19.4-15.7C1171.5,976.7,1169.2,974.7,1166.8,973.7z"/>
			<path class="st10" d="M1191.1,964.5c1.3-1.7,0.7-4.6-0.8-6c-1.7-1.7-4-1.7-6-0.8c-3.6,1.6-6.6,4.8-9.5,7.3
				c-1.9,1.7-1.9,4.9-0.4,6.8c1.5,1.8,4.6,2.9,6.7,1.3C1184.6,970.4,1188.4,968,1191.1,964.5z"/>
			<path class="st10" d="M1218.7,971.9c-15,1.4-30.6,14.9-37.5,27.8c-2.3,4.3,1.5,9.1,6.2,8c14.3-3.2,31.4-14.6,36.8-28.7
				C1225.3,975.8,1222.1,971.6,1218.7,971.9z"/>
			<path class="st10" d="M1115,1215.4c9.4-10.8,4.6-26.4,1.9-38.9c-1.5-7.1-12.3-6.8-14,0c-3.2,12.6-8.3,27.6,0.8,38.9
				C1106.3,1218.6,1112.4,1218.4,1115,1215.4z"/>
			<path class="st10" d="M1189.3,1195.8c-8.6,16.6-13.5,44.6-8.2,62.8c1.7,5.8,9.3,6.5,12.5,1.6c5.7-8.8,7.6-19.5,8.9-29.8
				c1.4-10.9,3.1-21.9,1-32.8C1202.3,1191.2,1192.3,1190.1,1189.3,1195.8z"/>
			<path class="st10" d="M1160,1205.9c-3.8,0-6.3,3-6.6,6.6c-0.4,4.9-1.8,10.8-0.1,15.6c1.6,4.5,8.2,6.1,10.7,1.4
				c2.7-5,2.2-11.5,2.6-17C1166.8,1208.9,1163.4,1205.9,1160,1205.9z"/>
			<path class="st10" d="M796.9,1225.5c1.1,4.8,5.1,8.9,9.8,10.4c2.6,0.9,6,0,7.8-2.1c3.3-3.8,4.7-9.3,3.3-14.1
				c-1.2-3.8-2.9-7.3-4.9-10.6c-4.8-7.7-16.6-4.5-17,4.6C795.7,1217.7,796,1221.6,796.9,1225.5z"/>
			<path class="st10" d="M879.5,1168.2c0.3,7.1-1.3,16.8,2.9,22.9c2.6,3.8,9.4,5,11.7,0c3.4-7.2,0.6-15.4-0.3-22.9
				c-0.5-3.8-3-7.2-7.2-7.2C883,1161,879.4,1164.3,879.5,1168.2z"/>
			<path class="st10" d="M954.8,1732.1c0.3-4.6,0-9.3-1-14.1c-1.2-6-9.6-5.1-11.3,0c-8.7,26.2-22.2,48.8-50,57.3
				c-25.1,7.7-50.9,4.8-75.1-4.3c-23.3-8.8-48-24-55.7-49.2c-4.2-13.9-3.7-28.3,1.6-41.7c3.8-9.5,10.6-17.2,12.7-27.4
				c1.1-5.4-3.1-10.5-8.6-9.7c-0.2-3.4-2.7-6.4-6.7-6.9c3.4-10.9-12.2-19.8-19.8-11.2c-19.2,21.9-28.8,50.9-26.2,80
				c2,22.4,13.9,59.7,39.1,64.7c3.5,0.7,7.3-0.8,9.5-3.3c11.8,10.8,26.1,19.1,41.2,25.4c12.3,5.2,25.2,9,38.3,10.9
				c0.2,2.3,1.5,4.5,4.1,5.3c22.1,7.4,45.5,11.7,67.5,3.8c0.7,3.5,3.1,6.7,6.9,7.9c41.8,13,49.9-49.1,48.5-75.7
				C969.2,1736.5,961.4,1731,954.8,1732.1z"/>
			<path class="st10" d="M1117.3,1540.5c-23.3,2.8-54.4,2.1-74.6,14.9c-0.5,0.3-0.9,0.7-1.2,1.1c-1.2-0.5-2.4-1-3.8-1.3
				c-3.4-0.8-7.7,1-8.4,4.8c-2.8,14.1,6.4,26.7,2.2,41.3c-4,13.7-15.5,19.5-23,30.4c-2.2,3.1,0.1,7.7,3.5,8.5
				c1.3,0.3,2.5,0.5,3.8,0.6c-0.8,3.1-0.6,6.5,1.2,9.3c14.4,22.1,30.8,13.2,43.3-4.9c20.3-29.3,41.8-57.3,65.7-83.7
				C1132.3,1554.4,1128.7,1539.2,1117.3,1540.5z"/>
			<path class="st10" d="M785.1,1556.6c2.3,2.8,7.2,1.2,8-2.1c3.5-14.7,3.1-30.2,7.5-44.7c2.1-7.1,5.3-15.6,11.9-19.8
				c5.7-3.7,11.7-3.1,16.8-7.9c2.6-2.3,2.6-6.2,1.2-9.1c-0.5-1-1-1.9-1.6-2.7c0.6-1.7,0.5-3.7-0.4-5.7c-0.7-1.6-1.6-3-2.6-4.1
				c1.2-4.3-0.3-9.5-3-12.9c-9.4-11.8-27.7-47.1-46.8-29.2c-7.3,6.8-10.5,21.9-13.1,31.1c-4,14.3-6.1,29.1-6.9,43.9
				c-0.3,4.4,2,7.8,5.1,9.8c0,0.2-0.1,0.3-0.1,0.5c-2.1,9.6,5.8,15.5,13.1,14.8C773.2,1532.1,776,1545.7,785.1,1556.6z"/>
			<path class="st10" d="M991.3,1548.9c-24-5.6-47.2-11-69.3-22.5c-17.9-9.2-33-27.3-52.8-32c-4.9-1.2-11.4,3.6-9.1,9.1
				c9.2,21.9,35,37.4,55.8,47.1c23.2,10.8,50.4,14.6,75.4,8.2C996.2,1557.6,996.3,1550,991.3,1548.9z"/>
			<path class="st10" d="M895.6,1564.7c4.6,0.1,6.9-5.8,3.7-9c-3-3-7.2-5.1-11-7.1c-3.9-2.1-7.5-4.3-11.7-6c-2.1-0.8-4.9,0.6-6,2.4
				c-1.3,2.2-0.7,4.6,0.8,6.4C876.8,1558.1,887.1,1564.6,895.6,1564.7z"/>
		</g>
		<g>
			<path d="M1041.5,901.5c1.1,0.5,2.2,0.9,3.3,1.3c7.8,2.8,13.4,9.5,14.2,17.7c1.4,14.5,4.9,29,8.1,42.8
				c4.2,17.9,8.5,36.9,16.8,53.4c20,39.7,67.7,31.1,103.7,33.7c11.4,0.8,22.8,0.7,34.2,0.5c18.4-0.4,40,2.4,56-10.1
				c23.9-18.7,29.6-58.4,29.9-89.7c0.1-4.9,3.7-8.9,8.6-9.7c0.9-0.2,1.9-0.3,2.8-0.6c4.2-1.1,7.2-6.9,4.4-10.7
				c-12.7-17.5-40.4-20.9-60.3-26.2c-25.1-6.6-50.5-11.5-76.2-15.1c-24.4-3.3-49-5.5-73.6-6.3c-22.6-0.8-51.5-4.7-72,6.5
				C1037.1,891.4,1036.4,899.3,1041.5,901.5z M1106,906.6c26.2,0.7,52.4,2.6,78.3,6.2c23.2,3.3,46.2,7.8,68.9,13.7
				c1.6,0.4,3.2,0.9,4.8,1.4c15.6,4.8,25.9,19.7,24.9,36c-1.5,25.2-7.6,54.9-27.4,61.2c-15.5,4.9-36.2-0.2-50.3,1.3
				c-8.6-0.1-17-0.3-25.6-0.4c-16.2-1.9-35.7,1.1-52.7-3.5c-18.4-5-23.6-20.9-28.6-37.4c-5.5-18.1-8.5-36.8-12.3-55.2
				c-2.5-12.2,7.1-23.5,19.6-23.3L1106,906.6z"/>
			<path d="M1249.8,473c6.6,2.1,12.9,3.9,18.6,6.1c9.3,3.7,11.1,15.9,3.7,22.6c-0.1,0-0.1,0.1-0.1,0.1c-4.1,3.8,0.2,11.8,5.6,9.7
				c15.2-5.8,36.9-3.9,45.8,11.5c9.1,15.7-2.8,32.2-17.9,38.1c-5.6,2.2-6.3,10.2,0,12.1c33.3,10,53.5-29,41.8-56.5
				c-4.3-10-10.9-17.4-18.8-22.2c-8.9-5.4-17.2-11.9-24-19.8c-14.4-16.8-38.3-27.2-57.1-11.1C1244,466.5,1246.1,471.8,1249.8,473z"
				/>
			<path d="M1127.6,474.5c1.6-13.8,22-18.3,33-15.1c9.7,2.8,18.1,10.8,25,17.8c3.8,3.8,10.7,1,10.6-4.4
				c-0.4-25.4-25.5-39.9-48.9-37.3c-19.1,2.1-48.4,23.2-30.7,43.6C1120.6,483.8,1127,479.5,1127.6,474.5z"/>
			<path d="M681,940.8c0.9,0.2,1.9,0.4,2.8,0.6c4.9,0.8,8.5,4.8,8.6,9.7c0.3,30.4,5.7,68.1,27.6,87.7c11.7,10.4,26.8,12.1,41.9,12.1
				c22.1,0,44.3-0.7,66.5-1.1c31.6-0.5,68.6,1.3,86.5-30.2c9-15.8,13.1-35.2,17.4-52.8c3.6-14.8,7.5-30.5,9-46.1
				c0.8-8.3,6.4-15.2,14.3-18c1.1-0.4,2.2-0.8,3.2-1.3c5.1-2.2,4.4-10.1,0-12.5c-20.5-11.3-49.3-7.3-72-6.5
				c-24.6,0.8-49.2,3-73.6,6.3c-25.7,3.5-51.1,8.5-76.2,15.1c-19.9,5.2-47.6,8.7-60.3,26.2C673.8,933.9,676.7,939.7,681,940.8z
				 M743.4,927.4c23.8-6.3,48.1-11.2,72.5-14.6c24.7-3.5,49.6-5.4,74.5-6.1c1.3,0,2.7-0.1,4-0.1c12.6-0.1,22.1,11.4,19.6,23.8
				c-3.7,18.3-6.7,36.7-12.2,54.6c-5,16.5-10.3,32.6-28.6,37.4c-16.2,4.3-34.2,1.9-50.2,3.2c-10,0.2-19.9,0.3-29.9,0.5
				c-13.2-1-33.9,3.6-48.5-1.1c-19.7-6.5-25.8-36.1-27.4-61.3c-1-16.6,9.8-32,25.8-36.3C743.2,927.5,743.3,927.5,743.4,927.4z"/>
			<path d="M806.3,524.2c-9.7-19.4,7.1-35.6,26-34.1c6.6,0.5,12.2-6,12.2-12.2c0-28.7,33.3-30.9,50.7-14.6c3.8,3.5,9.9,0,8.7-5
				c-10.9-43.7-59.7-35.1-77.3-4.5c-3.8,6.7-9.1,12.6-16.1,16c-20.9,10.2-28.4,37.5-13.5,60C800.7,535.5,809.4,530.4,806.3,524.2z"
				/>
			<path d="M974.2,419.9c4.3-3.9,4.3-9.8,8.2-14c4.4-4.7,11.6-7.7,17.9-8.4c19.5-2.3,14.5,21,18.5,33.2c1.5,4.6,7.8,7.1,11.5,3
				c11-12.2,12.3-30.5,3.7-44.5c-8.5-13.8-25.1-17.8-40.2-14.8c-14,2.8-29.4,11.1-33.2,26C958.9,407.2,963.3,429.8,974.2,419.9z"/>
			<path d="M700.9,548.9c5.6,1,10.5-4.4,7.5-9.8c-4.6-8.2-21.4-21.4-16.9-31.8c5.2-11.9,21.6-1.3,27.3,4.1c3.8,3.6,9.2,0.8,9.7-4
				c2.7-29.5-34.8-37.8-52.8-19.4C654,509.9,674.4,544.1,700.9,548.9z"/>
			<path d="M1634.1,817.9c-5-7.8-6.9-17.2-5.6-26.4c3.4-24.3-15.8-50.2-44.9-48.8c-20,1-33.5,13-39.1,28.1c-3.7,10-11.4,18-21.3,22
				c-27.5,11-44.2,45.5-31,74.7c13.9,30.7,50.5,38.2,75.4,21.8c7.3-4.8,16.1-6.7,24.8-5.6c16.6,2.1,33.3-4.6,42.9-21.7
				C1643.9,846.7,1642.3,830.6,1634.1,817.9z M1583.1,855.2c-5.8-4.6-15.1-5.2-19.2,2.5c-11.8,22.5-43.7,20.9-51.2-4.4
				c-4.3-14.6,1.1-24.4,10.4-30.8c11.2-7.8,26.1-6.5,37,1.7c0,0,0.1,0.1,0.1,0.1c5.2,3.9,10.9-3.4,8.3-8.3
				c-8.6-16-9.8-42.5,12.6-47.8c21.2-4.9,31.3,19.2,14.9,32.3c-7.8,6.2-2.3,17.6,5.4,20.4C1632.5,831.9,1608.3,874.9,1583.1,855.2z"
				/>
			<path d="M512.1,769.1c-6.4-34.1-42.3-50.3-70.9-38.2c-6.4,2.7-13.7,2.3-20.1-0.4c-17.3-7.3-38-3.6-51.4,12.3
				c-11.3,13.4-12.4,29.8-6.5,43.9c3,7.1,2.8,15-0.5,22c-10.8,23,1.3,54.3,30.8,60.1c21.1,4.2,38-5.8,46.6-20.8
				c4.4-7.7,12.3-12.7,21.2-13.5C492,831.9,518.2,801.7,512.1,769.1z M471.4,805.3c-12.7,5-26.8,0.4-35.5-10.1c0,0-0.1-0.1-0.1-0.1
				c-4-4.8-11.6,0.4-10.1,5.9c4.6,17.5,0,43.4-23,43.7c-21.5,0.2-26.8-25.6-7.5-34.8c8.8-4.2,7-16.5,0-21
				c-27.9-18.2,5.6-54.4,27.3-27.1c3.9,4.9,13.3,4.5,17.3,0c16.5-18.9,47.4-10.9,48.9,15.6C489.5,792.7,482,801.1,471.4,805.3z"/>
			<path d="M1446.9,1218.1c-46.5-19.2-112.3,20.9-107.5,67c1,10.1-1.2,20-6.4,28.7c-2.4,4-4.2,8.3-5.3,13.1
				c-5.6,25.1,10.4,50.9,32.1,62.4c40.9,21.7,102-4.8,102.3-48.7c0-5.9,2.8-11.5,7.9-14.4c14-7.9,23.9-22.6,25-39.6
				C1497,1255.9,1474,1229.2,1446.9,1218.1z M1444.7,1308c-9.7-0.4-14.6,10.5-10.6,18.4c19,36.9-36,54.6-62,41.8
				c-28.2-14-30.8-66.7,8.5-65.3c8.4,0.3,8.2-12.3,0-13c-0.1,0-0.1,0-0.2,0c-10.7-0.8-18.1-11.1-14.6-21.2
				c7.6-21.5,33.8-35.5,57.2-32.1c16.6,2.5,32.6,11.7,41.5,26.2C1475.6,1280.8,1470.5,1309,1444.7,1308z"/>
			<path d="M1323.9,1535.9c-20.1-28.6-87.3-15.1-90.1,26.7c-0.4,6.6-3.5,12.7-7.9,17.7c-0.7,0.7-1.3,1.5-1.9,2.3
				c-9.5,12.5-11.1,29.9-3.5,43.8c9.1,16.6,27.8,21.1,45.1,24.2c42.1,7.6,76.6-4,92.3-46.7c8.9-24.1-0.7-53.1-21.9-59.2
				C1331,1543.4,1326.8,1540.1,1323.9,1535.9z M1328.1,1609.3c-12.2,19.3-29.9,21.6-51,18.6c-13.6-1.9-41-4.5-36.3-24.4
				c5.8-24.5,34.5-11.5,45.1,0c4.5,4.8,13.6-0.2,11.4-6.6c-4.7-13.3-15-22.9-26.9-27.3c-9.3-3.4-9.6-16.8-0.6-20.8
				c14.2-6.4,36-3.7,35.2,9.1c-0.7,10.2,10.7,13.9,18.4,10.6C1347.5,1558,1331.4,1604.2,1328.1,1609.3z"/>
			<path d="M601.2,1199.5c-7.3,2.2-15.3,1.8-22.3-1.4c-19.7-9-42.7-8.2-61.8,5.3c-20.2,14.2-28,35.2-20.5,53.9
				c3,7.6,3.3,16.1,0.7,23.8c-6.7,20.2,0.5,43.5,18.4,58.3c26.5,22,70,20.4,97.7,1.2c19.3-13.3,29.5-36.7,25-58.4
				c-1.5-7.1,0.5-14.3,5-19.9C667.1,1232.9,635,1189.5,601.2,1199.5z M596,1322.9c-16.2,9.5-39.9,11.4-56.8,3
				c-19.3-9.6-28.1-33.1-10.3-48.9c4.6-4.1,4.9-13.3,0-17.3c-17.5-14.3-7-34.4,11.1-40.9c15.4-5.5,30.2-0.9,41.7,10.3
				c4.7,4.6,12.6,4.8,17.3,0c10.2-10.5,22-6.1,26.4,2.2c4.9,9.3-5.5,19.7-15,15.2c-20.2-9.5-45-4.1-63.8,10.4
				c-5.4,4.1-1,12.2,5.4,9.2c18-8.5,40.7-8.2,55.1,6.8C622.8,1289.5,613.7,1312.6,596,1322.9z"/>
			<path d="M1179.8,1445.7c-0.2-15.4,9.5-29.1,24.1-34c30.3-10.1,62.6-24.2,76.6-50c12.6-23,20.5-48.8,27.9-73.9
				c22.6-76.6,37.3-155.7,50-234.5c1.9-11.7,3.7-23.3,5.5-35c2.3-14.9,15.8-25.2,30.8-23.5c2.8,0.3,5.4,0.3,7.9-0.3
				c15.1-3.4,24.2-17.9,28-31.9c9.5-35.7-5.6-57.8-29.1-72.8c-12.4-7.9-19.2-22.1-18.2-36.8c0.7-9.7,1.3-19.4,1.7-29.1
				c1.1-22.9,2.3-46.9-1.9-69.6l-0.1-0.8c-1.4-7.4,3.4-14.3,10.8-16.2c8.8-2.2,17.3-6.8,24.6-14.3c19.5-19.8,22.3-51.6,9.5-75.1
				c-3.4-6.3-3.2-13.9,1-19.7l0.4-0.5c5.7-7.8,11-22.7,10.1-35.2c-0.8-12,1.9-23.9,6.1-35.2c3.8-10.4,5.7-21.2,5.1-30.9
				c-1.1-17.6-12.1-39.6-27.8-54.1c-10.3-9.5-17.6-21.9-19.6-35.6c-3.4-22.8-17.5-45.6-35.2-61.2c-7.1-6.3-11-15.5-10.5-25
				c1-18-5.7-36.3-19.1-48.7c-9.5-8.8-20-13.3-30.8-14.3c-11.9-1.1-21.8-8.9-26.7-19.8c-3.1-7-7.5-13.6-13.4-19.3
				c-16.6-16.4-39.7-21.2-61.1-16.6c-12.5,2.7-25.4,1.7-37.1-3.5l-0.3-0.1c-8.3-3.7-15.3-9.6-20.4-17.1
				c-19.6-28.4-52.7-46.3-88.4-41.8c-20.9,2.6-48.5,17.1-64.8,37.1c-7.9,9.7-21.7,12.4-33,6.9c-17.4-8.6-38-12.2-53.5-10.6
				c-25.8,2.6-48.5,16.5-61.8,37.3c-6.1,9.6-16.9,15-28.2,15.6c-8.3,0.4-16.3,2.3-23.7,5.3c-9.4,3.8-20,3.2-28.9-1.5
				c-20.3-10.6-49.3-5.2-66.6,8.7c-12.4,10-24.1,29-27.8,48c-2.4,12.6-11.8,23.1-24,27c-21.8,7-38.5,23.9-46.5,44.8
				c-3.2,8.3-11.3,13.1-20.2,12.2c-0.8-0.1-1.7-0.1-2.5-0.1c-21.5-0.3-46.7,9.8-60.9,26c-13.1,15-18,38.2-7.5,56
				c4.4,7.4,10.4,12.4,17.3,15.7c10.5,5.1,14.7,17.6,10.2,28.4c0,0.1-0.1,0.2-0.1,0.3c-8.1,19.5-10.1,48.4-0.5,69.7
				c5,11,5.5,23.4,2.9,35.1c-8,35.3,5.1,76.6,41.7,87.3c4.8,1.4,9.5,2.1,14,2.2c7.7,0.2,14.2,5.5,15.4,13.1l0.1,0.8
				c0.3,2,0.6,4,0.9,6c2.2,13.1,3.2,26.5,2.6,39.8c-0.8,18.4,0.6,37,1.3,54.8c0.2,5.8,0.8,11.6,1.2,17.4
				c0.8,14.6-6.6,28.4-18.7,36.6c-16.5,11-28.4,26-30.5,47.3c-1.5,15,1.1,31.9,10.2,44.4c7.6,10.5,17.1,13.9,29.7,13.4
				c14.2-0.6,26.5,9.6,28.6,23.7c1.8,11.9,3.7,23.8,5.6,35.7c12.7,78.8,27.5,157.9,50,234.5c7.4,25,15.3,50.9,27.9,73.9
				c5,9.3,11.4,16.7,18.7,22.8c10.3,8.6,15.3,22,14,35.3l0,0.3c-2.7,27.4-6.3,54.8-10.7,82c-8.4,51.4-19.8,102.3-34.1,152.4
				c-5.3,18.7-13.5,37.4-11.5,57.2c1.9,19.2,12.1,33.8,24.7,47.7c50.4,55.7,124.3,74.2,197.2,71.8c17.5-0.6,34.2-2,49.4-11.5
				c15.5-9.7,23.3-24.6,31.7-40.1c20.4-37.4,42.4-73.9,65.7-109.5c26.9-41.1,55.6-81.2,87.9-118.2c13.9-15.9,26.2-30.1,28.2-52
				C1182.2,1483.4,1180,1464.2,1179.8,1445.7z M994.6,1000.4c3.6-0.9,7.5-0.9,11.1,0c28.1,7.1,32.9,50.9,47.6,71.7
				c3.5,4.9,7.8,8.8,12.6,12c13.5,8.7,21.6,23.6,20.4,39.6c-0.7,9.1-1.3,18.2-2.1,27.3c-1.2,15.4-16.1,25.8-31,21.9
				c-29.7-7.6-58.9-17.2-87.4-28.8c-6.5-2.6-13,2.9-15,8.5c-5.2,14.4-10.4,28.9-15.6,43.3c-2.2,6.2,2.5,13.4,8.5,15
				c22.8,6.1,44.8,13.9,66.2,23.4c5.6,2.5,8.2,8.9,6,14.6l-0.1,0.2c-2,5.3-7.7,8.3-13.3,7c-14.3-3.4-41.9-9.4-64.4-12.1
				c-10.5-1.3-18.6-9.7-19.4-20.2c-2.6-33.1-4.9-66.1-6.9-99.2c-1-15.9,7.4-30.8,21-39.1c3-1.9,5.8-4,8.3-6.4
				C961.6,1058.9,963.3,1007.9,994.6,1000.4z M989.5,1277.2c7,1.6,10.7,9.3,7.6,15.8c0,0,0,0.1-0.1,0.1c-5.2,10.5-11.3,20.6-17,30.9
				c-2,3.7-6.6,5-10.3,3.1l-0.1-0.1c-3.4-1.8-7.5,0.6-7.7,4.4c-1.9,38.1,59.6,62.8,88.1,42.1c4.4-3.2,4.5-10.8-1.6-12.4
				c0,0,0,0-0.1,0c-3.7-0.9-5.5-5.2-3.2-8.3c8.8-12,19.7-22.9,30.7-32.8c4.5-4,11-4.7,16.3-1.8c22.5,12.7,44.5,27.5,57.2,50.4
				c12.8,23,16.5,49.6-9.5,63c-31,16-69.5,16.9-103.5,13.6c-41.7-4.2-83.5-17.6-118.6-40.7c-32.5-21.4-67.4-57.9-68.5-98.8
				C847.6,1249.1,970.4,1272.8,989.5,1277.2z M979.1,1175.4c18.1,6.7,36.4,12.6,54.9,17.8c7.1,2,10.1,10.6,5.6,16.5
				c0,0-0.1,0.1-0.1,0.1c-0.5,0.6-1,1.3-1.5,1.9c-3.1,3.8-8.3,5-12.8,3c-17.2-7.8-34.7-14.7-52.6-20.5c-5.3-1.7-8.2-7.5-6.3-12.7
				c0-0.1,0-0.1,0.1-0.2C968.3,1176.1,974,1173.5,979.1,1175.4z M1078.8,1249.4c3.1,0.1,5.3,3,4.6,6c-0.2,0.9-0.4,1.9-0.6,2.8
				c-0.5,3.4-4.4,5.1-7.4,3.3c-0.8-0.5-1.6-1-2.4-1.5c-2.6-1.7-5.2-3.6-7.9-5.4c-2.5-1.7-1.2-5.5,1.8-5.4
				C1071,1249.3,1074.9,1249.3,1078.8,1249.4z M1062.5,1220.8c1.6-2.1,3.1-4.3,4.6-6.6c1.6-2.6,5.4-2.3,6.7,0.4
				c0.9,2.1,2.1,4.1,3.3,5.9c1.6,2.4,0,5.7-2.9,5.8c-2.7,0.1-5.4,0.3-8.2,0.4C1062.6,1227.1,1060.5,1223.4,1062.5,1220.8z
				 M1035.7,1267.1c1.8-5,8-6.7,12.3-3.5c4.8,3.6,9.8,6.9,14.4,10.3c2.6,1.8,5.2,4,8,6.1c4,3.1,4.1,9.1,0.2,12.3
				c-20.1,16.5-37.3,36.1-51.1,58.5c-1.8,2.8-5.2,4.3-8.4,3.3c-3-0.9-5.8-2.1-8.7-3.6c0,0,0,0-0.1,0c-3.8-2-4.9-7.1-2.4-10.6
				C1015.2,1318.6,1026.4,1292.4,1035.7,1267.1z M1153.2,1333.9c-11.5-12.1-25.1-22.1-39.6-31c-4.2-2.6-4.1-8.6,0.1-11.1l0.1-0.1
				c7.3-4.3,8.6-17.2,0-21.1c-18-8.3,1.7-28.3,9.3-36c7.1-7.2,2.2-21.5-8.6-20.9c0,0-0.1,0-0.1,0c-5.9,0.3-10.6-4.9-10.1-10.8
				c1.6-18.5,5.2-62,7.5-92.8c0.5-7,6.8-12.3,13.8-11.5c0,0,0.1,0,0.1,0c18.7,2.1,37.6,3.2,56.4,3.5c17.8,0.3,31.5,16,29.1,33.7
				c-6,44.1-13,87.9-21.8,131.5c-4.1,20.2-8.3,40.9-13.9,61.1C1172.7,1338.3,1160.2,1341.3,1153.2,1333.9z M888,1132.9
				c1.9,30.5,4,61,6.4,91.4c0.8,10.4-5.6,19.9-15.6,23c-14.9,4.6-32.9,13.3-47.9,25.6c-7.9,6.5-19.9,2.2-21.8-7.9
				c-6.8-35.8-11.3-72.1-16.3-106.8c-1-6.6-1.9-13.2-2.8-19.7c-2.6-19.1,12.1-36,31.3-36.5c10-0.3,20.1-0.7,30-1.4
				c0.1,0,0.2,0,0.3,0C870.6,1099.5,886.8,1114,888,1132.9z M813.1,1323.3L813.1,1323.3c5.4-3.8,13-1.4,14.8,4.9
				c9.2,31,33.3,61.8,53,79c39.7,34.7,91.4,54.2,143.3,61.1c37.4,5,80.3,4.9,116.2-10c6.7-2.8,14.1,1.6,14.7,8.8
				c0.5,5.3,0.9,10.7,1.1,15.9c0.3,9.3-4.2,18-12,23.1c-53.8,34.8-168,34.3-238.6-7.3c-33.1-19.5-64.4-44.6-85.8-76.8
				c-12.9-19.4-19.8-39.1-23.2-60.5c-2.3-14.8,4.1-29.5,16.3-38.1L813.1,1323.3z M1294.9,1244.5c-7.8,30.3-16,61-28.3,89.8
				c-3.8,9-8.1,18.8-14.3,26.4c-10.5,12.8-27.2,19-44.3,21.7c-12,1.8-21.7-9.6-17.9-21.1c15.6-47.8,32.2-133.8,40.8-193.7
				c1.8-12.6,3.6-25.3,5.3-37.9c2.2-16.5,15.4-29.3,32-30.9c10.2-0.9,22.7-1.9,34.2-5.1c12-3.3,23.5,6.8,21.2,19.1
				C1315.4,1157,1306.1,1201,1294.9,1244.5z M1330.7,862.5c-15.4-4.3-31-8.3-46.7-11.8c-11-2.5-18.5-12.8-17.4-24
				c2.7-29.2,5.7-58.8,6.9-88.2c0.8-18.9,20.9-30.5,37.6-21.5l0.4,0.2c16,8.6,42.2,21.7,46.9,38.5c5.1,17.9,3.1,39.1,2.5,57.5
				c-0.3,9.7-0.8,19.5-1.4,29.2c-0.9,14.3-14.8,24.1-28.6,20.2L1330.7,862.5z M1000.1,821.7c-19.1,0-38.2,0.4-57.3,1.1
				c-21.4,0.8-39-16.9-38.2-38.3c1-28.2,2.1-66,2-96.8c-0.1-19.1,15-34.8,34.2-35.4c34.9-1.1,84.3-1.1,119.2,0
				c18.8,0.6,34,15.8,34.1,34.7c0.3,32.8,3.1,66,3.3,98.3c0,0.1,0,0.3,0,0.4c0.2,21.1-17.5,37.9-38.7,37.1
				C1039.1,822.2,1019.5,821.8,1000.1,821.7z M758.2,813.4c-1.5-30.8-2.4-61.8-5-92.4c-1.6-18.7,10-36.1,28-41.5
				c20.9-6.3,42.2-11.4,63.7-15.5c18.2-3.5,35,11,34.3,29.5c-1.3,31.7-0.2,63.9-0.5,95c0,5.1-0.1,10.3-0.1,15.4
				c0,12.9-9.8,23.7-22.7,24.9c-22.8,2.3-45.6,5.1-68.2,8.6C772.8,839.7,759,828.6,758.2,813.4z M638.9,704.2l0-0.2
				c-0.2-2.2,0.5-4.3,1.8-6.1c0.7-0.9,1.4-1.9,2.1-2.9c5.8-8.6,14.2-15.2,24.2-18c11.1-3.2,21.2-9.7,28.6-18.5
				c12.5-14.9,27.6-27.5,45.5-34.9c2.5-1,5-2,7.5-3c21.1-7.9,42.6-14.9,64.4-20.8c28-7.7,74.8-15.6,106.7-20.7
				c17.7-2.8,35.8,1.1,51,10.6c9.4,5.9,20.4,9.4,31.1,10.4c14.2,1.3,28.9-2.2,40.4-10.4c6-4.2,13-6.8,20.3-7.5
				c1.1-0.1,2.2-0.3,3.2-0.4c5.3-0.9,10.7-1.2,15.9-0.3c38.6,6.3,76.9,10.6,115,21.1c20.3,5.6,40.4,12.2,60.2,19.6
				c11.7,4.4,23.1,10,34.6,15.2c12.4,5.5,20.4,17.7,20.7,31.3l0,0.5c0.2,9.4-9.5,15.7-18.1,11.9c-25.7-11.4-52.7-20.4-79.2-28
				c-68.6-19.8-143-28.8-214.6-28.8S854,633.2,785.4,653c-45.5,13.2-92.5,30.2-132.1,56.8c-0.3,0.2-0.7,0.5-1,0.7
				C646.8,714.1,639.5,710.7,638.9,704.2z M1144.9,828.7c-13.1-1.3-23.1-12.2-23.1-25.4c0-7.3,0-14.6-0.1-21.9
				c-0.3-28.6,0.8-58.4-0.4-87.8c-0.7-18.6,16.1-33.1,34.3-29.5c18.3,3.6,36.4,7.8,54.3,12.8c23.3,6.6,38.6,28.8,36.8,52.9
				c-2.1,28.3-3.7,60.7-4.8,83.3c-0.7,15.2-14.5,26.4-29.5,24C1190,833.7,1167.5,830.9,1144.9,828.7z M1319.9,354.2
				c-0.1,0-0.2,0-0.3,0c-11.9-1-23.2-5.7-32.5-13.3c-0.2-0.1-0.3-0.3-0.5-0.4c-5.9-4.7-7.7-12.7-5.1-19.8c0.1-0.2,0.2-0.4,0.2-0.6
				c3.2-8.9,12.7-13.8,21.6-10.8c14.5,4.8,25.6,17.2,28.2,32.1C1332.9,348.5,1327.1,354.9,1319.9,354.2z M1171.1,262.9
				c3.7,7.6,13.7,7.2,19.2,2.5c37.1-32.1,88.6,5.7,67.2,50.3c-2.8,5.8-8.4,10-14.9,10.3c-6.1,0.3-12.3,1.5-18.3,3.6
				c-7.3,2.5-15.1,2-22-1.5c-7.4-3.7-15.5-6.2-23.8-7.6c-7.4-1.2-13.2-6.9-15.2-14.2c-4.8-17.1-19.8-34.7-31.6-40.8l-0.1,0
				c-3.6-1.8-4.3-6.7-1.3-9.4C1143,244.5,1161.1,242.3,1171.1,262.9z M1058,194.2c24.2-4.9,48.9,5.1,64.9,23.1
				c3.9,4.4,3,11.2-1.8,14.6c-4.9,3.5-8.8,8.1-11.4,13.9c-2.4,5.5-9.5,7.4-14.5,4.1c-20.9-14-50.2-15.9-69.1-15.3
				c-8.5,0.3-13.7-9.7-8.1-16.2c0-0.1,0.1-0.1,0.1-0.2C1028.4,206.2,1042.5,197.3,1058,194.2z M695.8,323.8
				c1.3-11.6,5.3-22.8,13.4-31.6c6.9-7.5,16.4-13.3,26.8-14c0.1,0,0.2,0,0.3,0c12.3-0.8,20.2,12.8,14.1,23.6
				c-2.4,4.3-4.6,8.8-6.4,13.4c-3.3,8.2-8.9,15.6-16.4,20.3c-3.4,2.1-6.3,4.7-8.6,7.8c-3.8,5-10.4,6.6-16,3.8
				c-0.1,0-0.1-0.1-0.2-0.1c-4.5-2.2-7.4-6.6-7.3-11.6C695.4,331.6,695.4,327.7,695.8,323.8z M534.5,443.6
				c6.8-9,17.8-13.8,28.4-16.8c4.8-1.4,10.4-2.9,15.5-2.5c0,0,0.1,0,0.2,0c4.8,0.4,6.8,6.5,3.2,9.8c-8.7,8-14.7,18.7-16.2,29.5
				c-1.3,9.7-10,16.9-19.6,15c-3.8-0.8-7.3-2.1-10.4-4.4C525.5,466.6,527.7,452.6,534.5,443.6z M574.7,686.9
				c-33.1-30.4,2-66.6,13.7-96.1c2.9-7.3-6.2-11.6-11.8-9.1l-0.2,0.1c-8.1,3.7-17.7-1-19.5-9.7c-2.3-11.4-2.6-22.9,2.8-36.2
				c9.9-24.3,32.5-39.2,55.8-48.7c6-2.4,5.1-10.6-1.5-11.2c-3.1-0.3-6.1-0.4-9.1-0.2c-10,0.5-17-10.1-11.8-18.6
				c3.8-6.2,10.2-10.8,20.4-12.7c6.6-1.3,10.1-9,8.5-15c-8.4-32.9,14.2-66.4,49.7-65.2c35.3,1.2,56.3,37.5,51.7,70.2
				c-0.8,5.7,7,10.4,10.2,4.3c10.7-20.9,9.6-43,0.4-60.9c-5.4-10.5,2-23.2,13.8-23.3c0.4,0,0.7,0,1.1,0c4.8,0.1,11-3.8,11.7-8.9
				c4.8-32.8,26.4-65.4,63.1-65.4c18.3,0,35.6,10.3,43.9,26.8c8.5,17,4.1,32.6-2.1,49.3c-1.7,4.5,4.3,8.9,8.2,6.3
				c32.2-21.9,24.1-59.7,1.4-83.8c-10.9-11.6-9.5-30.2,3.6-39.2c9.9-6.8,21.1-11.5,33.2-12.5c14.4-1.3,28.8,2.5,41.1,10.2
				c0.3,0.2,0.6,0.4,0.9,0.6c11.9,7.8,14.9,23.5,8.1,36c-4.6,8.4-7.2,17.8-6.7,27.7c0.3,6.2,7.5,7.4,10.9,3
				c14.7-19.1,27.3-38.5,51.8-46c11.7-3.5,23.6-3.5,34.9-0.6c11.2,2.9,16.2,15.4,11.5,26c-0.4,0.9-0.8,1.8-1.1,2.8
				c-1.9,5.5,4.5,8.7,8.8,6.8c16.1-7,34.4-15,51.1-4.4c7.2,4.6,12.5,12.6,14.6,20.8c0.1,0.4,0.2,0.8,0.3,1.2
				c1.6,7.4-1.7,14.8-7.7,19.4c-8.4,6.3-14.7,15.6-17.5,28.4c-1,4.7,4.5,10.6,9.2,7c25.6-19.6,54.5-33.9,81.5-7.1
				c3.5,3.5,10.5,5.1,14.8,1.9c9-6.7,18.5-9.9,27.7-9.8c13.9,0.1,21.7,15.4,14.5,27.3c-2.6,4.3-4.5,9.3-5.5,14.9
				c-0.8,4.4,3.9,9.6,8.3,6.4c23-16.2,47.8-29.5,75.5-14.5c12.8,6.9,22.9,17.7,29.6,30.6c5.8,11,7.1,22.4,9.4,33.8
				c0.9,4.4-1.4,8.9-5.6,10.6l-0.1,0c-6.4,2.6-9.6,12.4-2.1,16.2c10,5.1,21.3,6.2,31.1,11.9c13.8,8,23,22.6,24.6,38.6
				c3.3,33.6-22,44.8-44.6,61.6c-4.4,3.3-4.6,11,1.6,12.5c2.9,0.7,5.8,1.1,8.6,1.3c9.5,0.4,13.5,12.5,6.1,18.4
				c-9.2,7.3-19.4,12.2-24,17.8c-2.6,3.2-2.7,8.1,1.3,10.4c3.1,1.7,6.4,2.7,9.8,3c12.8,1.2,24,10.2,26,22.9c0.3,1.9,0.4,3.8,0.4,5.9
				c-0.1,14.2-9.3,30.5-23.8,34.5c-17,4.7-38.2-10.4-45.8-24.8c-9-16.7-9.5-53.5,7.9-66c5.1-3.7,2.1-11.6-4.3-10.2
				c-1.4,0.3-2.7,0.7-4.1,1.2c-13.1,4.8-27.6,4.4-40.4-1.2c-9.7-4.2-19.7-7.9-29.1-11.5c-21.6-8.4-43.5-15.9-65.8-22.1
				c-25.5-7.1-52.7-14-80-18.3c-12.6-2-22.1-12.1-23.6-24.8c-1.2-9.8-6.4-18.9-15.6-25c-4.3-2.9-10.3,1.9-8.7,6.7
				c3.4,10.8,3.5,27.2-6.1,35.1l-0.2,0.1c-3.5,2.9-8.6,0.3-8.7-4.2c-0.3-10.3-4.5-20-14.8-24.6c-4.8-2.2-10.9,0.3-10.9,6.3
				c0,8.4,3,17.3,0.6,25.7c-4,13.9-19.5,19.9-32.6,19.1c-10.6-0.7-22-4.8-28.9-13.2c-8.2-9.9-4.8-18.7-1.8-29.8
				c1.5-5.6-4.2-12.9-10.3-10.3c-7,3-11.9,8-14.6,14.1c-4.2,9.1-13.4,14.8-23.4,15.4c-41.2,2.4-83.6,12.8-122.4,23.5
				c-24,6.6-47.5,14.6-70.7,23.5c-1.2,0.5-2.3,0.9-3.5,1.3c-10.3,3.9-25.1,0.7-32.2-7.9c-6-7.3-14.4-12.5-25-13.5
				c-4.8-0.5-8,4.8-5.2,8.7c8.3,11.7,19,26.5,16.3,41.7c-1.7,9.5-7.5,16.5-15,20.7c-6.8,3.8-15.6,1.1-18.4-6.1
				c-3.2-8.1-8.7-15.7-17-22.1c-3.8-2.9-9.7,1.9-8.2,6.3c6,16.5,10.4,36.6-0.3,52.4C613.1,697.5,589.8,700.8,574.7,686.9z
				 M639.3,813.2c-0.6-18.3-2.6-39.5,2.5-57.5c4.8-16.8,31-30,47-38.5c0.4-0.2,0.8-0.4,1.2-0.6c16.5-8.8,36.7,2.8,37.6,21.5
				c1.5,31.3,4.5,67.1,6.5,88.8c1,11.3-6.5,21.5-17.5,23.9c-8.2,1.8-16.4,3.7-24.6,5.8c-7.2,1.8-15.1,3.6-23.5,5.7
				c-13.6,3.3-27-6.4-27.8-20.4C640,832.3,639.6,822.7,639.3,813.2z M605.3,970.8c-17.4-2.8-15.3-34.9-9.9-46.1
				c4.3-8.9,11.4-12.7,19.9-17c23.1-11.6,48.9-18.7,73.8-25.2c101.1-26.5,206.7-36,310.9-36.3c96.3,0.3,193.2,8.8,287.1,30.5
				c28.3,6.5,56.8,14,83.8,24.9c22.4,9,40,18.9,37.2,47.2c-0.9,8.9-3.2,20-13.3,22.1c-7.1,1.5-17.7-4.4-24.9-5.3
				c-13.3-1.6-24.5,2.6-31.7,14.2c-14.4,23.2-6.9,60.2-26.2,80.2c-16.7,17.3-58.8,15.6-80.5,16.8c-35.2,1.9-70.9,1.4-105.9-2.5
				c-13.7-1.5-30.8-2.6-43.4-8.8c-11.7-5.7-15.9-20.4-20.8-31.6c-11.8-27.2-26-55.4-58.4-57.9c-0.9-0.2-1.8-0.3-2.9-0.2
				c-1,0-1.9,0-2.8,0.2c-29.1,2.2-44.1,25.5-55.3,50.5c-4.7,10.5-8.3,24.7-16.2,33.4c-7.3,8-19.7,9.4-29.9,11.3
				c-32.6,6.2-66.6,7-99.7,6.5c-30.8-0.4-64.1-0.8-93.7-10.1c-29-9.2-26.3-47.9-34-72.4c-3.1-9.7-7.4-20.2-16.4-25.9
				C635.7,958.8,621.3,973.4,605.3,970.8z M747.9,1360.8c-6.3-7.6-10.5-17.5-14.3-26.4c-12.3-28.8-20.5-59.5-28.3-89.8
				c-9.8-38.1-18.2-76.6-25.6-115.2c-3.8-20.1,13.7-37.5,33.8-33.9c6.9,1.2,13.8,2.1,20.5,2.9c0.1,0,0.2,0,0.3,0
				c15.3,1.9,27.5,13.7,29.5,29c6.7,51.4,14.7,102.7,25.2,153.3c0.9,4.2,1.7,8.3,2.6,12.5c1.7,7.6-1.2,15.4-7.3,20.1
				c0,0-0.1,0.1-0.1,0.1c-13.9,10.5-23.3,25.8-26.5,42.9c-0.1,0.7-0.2,1.3-0.3,1.9C756.6,1362.6,750.9,1364.3,747.9,1360.8
				C747.9,1360.8,747.9,1360.8,747.9,1360.8z M852.1,1802.8c-32.9-5.8-64.7-18.1-91.1-38.9c-13.3-10.5-28.9-24.4-36.3-39.8
				c-10.6-21.8,1.5-45.4,7.5-66.9c1.7-6,3.3-12.1,4.9-18.1c2.2-8.4,13.2-10.8,18.4-3.8c22.6,30.7,64.1,49.8,100.6,47.3
				c15.3-1,31-8.2,46.3-8c22.2,0.3,37.5,27.9,45.8,45.4c8.2,17.2,11.5,35.6,10.6,54.6c0,0.1,0,0.2,0,0.3c-0.9,16.6-14,30-30.4,32.4
				C902.8,1811.2,872,1806.3,852.1,1802.8z M993.9,1739.7c-4.1,7.2-14.8,6-17.3-1.9c-10.2-33.1-31.9-57.4-52-72.1
				c-29.7-21.8-59.5-2.4-92.2-8.6c-43.4-8.2-78.9-43-79.5-83.7c0-0.6,0.1-1.2,0.2-1.8l0.1-0.3c1.6-7.4,11.6-8.1,14.4-1.1
				c14.3,35.2,39.9,65.4,75.8,70.4c35.7,4.9,65.3-20.5,100.3-21.1c13.7-0.3,26.1,3.5,36.8,10.1c31.9,19.7,41,62.1,22.2,94.6
				C999.8,1729.3,996.8,1734.7,993.9,1739.7z M1050.1,1647.9c-5.3,7.9-17,8-22.2,0c-21.1-32.2-61.7-48.1-104.3-40.9
				c-38.2,6.4-80.6,23.5-110.3-10.8c-9.8-11.3-17.7-24-24.1-37.4c-15.7-32.6-20.5-69.3-16-105.2c1.3-10.3,2.4-20.5,3.4-30.8
				c0.7-7.1,10.1-8.9,13.5-2.7c1.7,3.2,3.5,6.3,5.4,9.2c22.8,36.7,56.8,66.4,93.8,88.3c65.4,38.6,143.8,52.6,214.8,31.5
				c8.1-2.4,14.5,7,9.1,13.5c-11.9,14.4-23.6,29-34.6,44.3C1068.7,1620.3,1059.3,1634,1050.1,1647.9z"/>
		</g>
	</g>
</g>
</svg>
